<ttFont>
          <CharString index="0">
            rmoveto
            142 -70 78 -110 -106 -100 -96 23 callgsubr
            98 -94 120 72 40 24 22 36 vhcurveto
            -14 26 rlineto
            -26 -36 -42 -18 -54 hhcurveto
            -106 -82 84 138 hvcurveto
            352 hlineto
            2 12 0 10 10 vvcurveto
            -353 -4 rmoveto
            132 10 83 64 80 hhcurveto
            90 60 -64 -132 hvcurveto
            return
          </CharString>
          <CharString index="1">
            29 -12 28 306 30 272 28 hstemhm
            158 114 92 32 -8 32 hintmask 11110100
            230 -12 rmoveto
            108 82 70 110 92 -68 60 -80 16 hvcurveto
            4 vlineto
            hintmask 11111000
            70 23 54 51 86 vvcurveto
            96 -74 56 -94 -74 -54 -36 -42 -42 vhcurveto
            20 -22 rlineto
            40 36 54 32 60 hhcurveto
            82 54 -50 -76 -80 -54 -66 -152 hvcurveto
            -30 vlineto
            hintmask 11110100
            162 68 -64 -92 -90 -66 -60 -90 -92 -52 42 42 -38 hvcurveto
            -20 -22 rlineto
            -42 40 58 -48 102 hhcurveto
            endchar
          </CharString>
          <CharString index="2">
            29 -12 28 234 28 80 28 238 28 hstem
            87 34 vstem
            446 100 rmoveto
            -56 -41 -41 -28 -58 hhcurveto
            -102 -64 91 143 -16 hvcurveto
            246 28 -249 hlineto
            -1 14 0 15 0 15 0 12 0 12 12 flex1
            289 28 -287 hlineto
            147 15 70 91 112 hhcurveto
            48 38 -28 -42 30 hvcurveto
            22 20 rlineto
            40 -28 -50 38 -60 hhcurveto
            -128 -86 -101 -165 -17 hvcurveto
            -65 -4 rlineto
            -24 63 vlineto
            -1 -12 0 -12 0 -12 0 -15 0 -15 -14 flex1
            -63 -4 rlineto
            -24 66 vlineto
            -161 18 80 -101 116 hhcurveto
            74 49 36 58 41 hvcurveto
            endchar
          </CharString>
          <CharString index="3">
            -20 -14 -12 -22 -22 18 -10 16 3 3 0 1 2 hvcurveto
            -56 -22 -31 -42 -36 vhcurveto
            16 -18 rlineto
            48 34 30 46 68 vvcurveto
            38 -16 20 -22 vhcurveto
            return
          </CharString>
          <CharString index="4">
            384 rmoveto
            -62 -59 -36 -55 -45 hvcurveto
            246 1 92 85 105 hhcurveto
            42 39 -18 -36 29 hvcurveto
            20 22 rlineto
            36 -32 -40 24 -56 hhcurveto
            -122 -110 -92 -272 -190 76 -110 128 92 78 84 114 128 -64 70 -112 hvcurveto
            8 -368 rmoveto
            -113 -53 100 139 -7 hvcurveto
            73 55 61 28 47 hhcurveto
            104 42 -74 -96 -94 -58 -76 -78 hvcurveto
            endchar
          </CharString>
          <CharString index="5">
            652 rmoveto
            -92 -78 -84 -114 -128 64 -70 112 62 59 36 55 45 hvcurveto
            -246 -1 -92 -85 -105 hhcurveto
            -42 -39 18 36 -29 hvcurveto
            -20 -22 rlineto
            -36 31 41 -24 56 hhcurveto
            122 110 92 272 190 -76 110 -128 hvcurveto
            8 -368 rmoveto
            -104 -42 74 96 94 58 76 78 113 53 -100 -139 7 hvcurveto
            -73 -55 -61 -28 -47 hhcurveto
            endchar
          </CharString>
          <CharString index="6">
            rmoveto
            17 callgsubr
            16 11 14 16 -56 callsubr
            endchar
          </CharString>
          <CharString index="7">
            -9 callgsubr
            160 -98 92 48 callgsubr
            -98 -4 callgsubr
            98 -92 114 hvcurveto
            28 vmoveto
            -102 -78 90 132 132 78 92 102 102 78 -92 -132 -132 -78 -90 -102 hvcurveto
            return
          </CharString>
          <CharString index="8">
            rmoveto
            124 82 74 100 102 -67 39 -73 33 hvcurveto
            -102 46 rlineto
            -47 21 -69 31 82 vvcurveto
            76 62 50 92 68 54 -28 -42 38 vhcurveto
            20 22 rlineto
            41 -38 -62 37 -80 hhcurveto
            -106 -80 -64 -94 -98 78 -39 56 -25 hvcurveto
            102 -46 rlineto
            66 -30 56 -28 -88 vvcurveto
            -84 -68 -58 -106 -80 -70 36 56 -48 vhcurveto
            -22 -22 rlineto
            -58 50 72 -42 98 hhcurveto
            return
          </CharString>
          <CharString index="9">
            728 rmoveto
            18 14 12 20 20 -14 12 -18 -18 -14 -12 -20 -20 14 -12 18 hvcurveto
            192 hmoveto
            18 14 12 20 20 -14 12 -18 -18 -14 -12 -20 -20 14 -12 18 hvcurveto
            return
          </CharString>
          <CharString index="10">
            rmoveto
            100 56 62 70 94 -84 23 -76 29 hvcurveto
            -58 22 -58 22 58 vvcurveto
            47 36 47 80 50 34 -20 -24 32 vhcurveto
            18 24 rlineto
            28 -34 -50 20 -48 hhcurveto
            -98 -52 -58 -66 -82 82 -28 74 -26 hvcurveto
            56 -20 64 -28 -64 vvcurveto
            -54 -42 -48 -80 -72 -44 28 34 -40 vhcurveto
            -20 -24 rlineto
            -36 42 60 -30 72 hhcurveto
            return
          </CharString>
          <CharString index="11">
            359 -142 28 172 28 -22 28 300 28 180 28 hstemhm
            52 30 160 30 206 24.56 217.44 30 hintmask 1101111110000000
            382 -142 rmoveto
            68 62 18 36 56 hvcurveto
            -14 24 rlineto
            -30 -48 -54 -20 -68 hhcurveto
            -182 -120 124 194 240 174 156 184 170 110 -110 -176 -146 -82 -82 -64 -64 -22 46 96 24 hvcurveto
            34 184 rlineto
            -26 hlineto
            -8 -40 rlineto
            -2 hlineto
            32 -20 -28 16 -36 hhcurveto
            -118 -66 -128 -94 hvcurveto
            hintmask 1011111110000000
            -90 52 -44 60 46 40 32 38 36 vhcurveto
            2 hlineto
            hintmask 1101111110000000
            -52 4 38 -24 52 hhcurveto
            80 98 90 168 188 -118 124 -190 -206 -184 -168 -258 -216 138 -128 192 hvcurveto
            hintmask 1011111110000000
            -26 234 rmoveto
            -46 -38 28 80 88 58 104 94 32 20 -12 -40 26 hvcurveto
            -32 -178 rlineto
            -48 -42 -38 -22 -34 hhcurveto
            endchar
          </CharString>
          <CharString index="12">
            101 37 84 62 8 hvcurveto
            -26 4 rlineto
            -58 -8 -37 -66 -75 hhcurveto
            -75 -37 66 58 -8 hvcurveto
            -26 -4 rlineto
            -62 8 37 -84 101 hhcurveto
            return
          </CharString>
          <CharString index="13">
            -16 -12 -14 -15 -15 12 -14 16 16 11 14 15 -56 callsubr
            return
          </CharString>
          <CharString index="14">
            rmoveto
            16 30 8 10 28 hvcurveto
            -10 26 rlineto
            -8 -18 -26 -8 -18 hhcurveto
            -70 -14 44 62 hvcurveto
            328 142 28 -142 140 -26 vlineto
            -4 -140 -76 -4 rlineto
            -24 76 -324 vlineto
            -82 24 -56 88 vhcurveto
            return
          </CharString>
          <CharString index="15">
            580 rmoveto
            63 16 66 56 4 hvcurveto
            -26 2 rlineto
            -52 -2 -16 -46 -37 -59 -20 100 -76 hhcurveto
            -64 -16 -65 -57 -4 hvcurveto
            26 -2 rlineto
            54 2 16 44 38 58 20 -100 77 hhcurveto
            return
          </CharString>
          <CharString index="16">
            297 -12 26 110 30 324 30 118 26 hstem
            52 30 120 34 422 30 vstem
            370 -12 rmoveto
            172 146 132 202 200 -146 130 -172 -172 -146 -130 -200 -202 146 -132 172 hvcurveto
            26 vmoveto
            -154 -134 124 184 182 134 122 154 154 134 -122 -182 -184 -134 -124 -154 hvcurveto
            4 110 rmoveto
            66 36 27 33 36 hvcurveto
            -16 22 rlineto
            -29 -32 -38 -23 -50 hhcurveto
            -84 -56 64 104 94 60 62 82 42 28 -16 -30 32 hvcurveto
            18 22 rlineto
            32 -32 -34 22 -52 hhcurveto
            -94 -84 -70 -116 -126 80 -72 92 hvcurveto
            endchar
          </CharString>
          <CharString index="17">
            29 -48 28 672 28 hstemhm
            52 30 26 30 200 30 22 30 hintmask 11100100
            420 284 rmoveto
            hintmask 11110100
            186 -282 -39 139 vvcurveto
            40 28 42 72 52 32 -20 -26 32 vhcurveto
            18 22 rlineto
            30 -36 -46 22 -52 hhcurveto
            -90 -40 -60 -52 -35 13 -26 21 -20 hvcurveto
            hintmask 11101100
            -50 -28 -40 -37 -66 -182 286 40 -144 vvcurveto
            -48 -42 -42 -64 -64 -36 22 32 -34 vhcurveto
            -22 -22 rlineto
            -34 38 50 -26 68 hhcurveto
            70 66 50 70 37 -14 27 -21 21 hvcurveto
            hintmask 11100100
            50 26 37 33 68 vvcurveto
            -111 -108 rmoveto
            -84 58 -143 12 112 vvcurveto
            55 34 28 49 27 vhcurveto
            82 -57 143 -14 -115 vvcurveto
            -58 -30 -24 -51 -24 vhcurveto
            endchar
          </CharString>
          <CharString index="18">
            119 -12 28 628 28 hstem
            38 32 60 30 174 30 vstem
            550 16 rmoveto
            -39 15 -44 27 -47 39 53 67 39 86 26 92 rrcurveto
            -30 hlineto
            -24 -88 -35 -77 -50 -62 -70 64 -72 88 -47 90 rrcurveto
            76 58 78 57 84 vvcurveto
            66 -36 50 -68 -76 -54 -60 -84 -52 17 -57 28 -57 vhcurveto
            -70 -53 -67 -58 -85 vvcurveto
            -110 86 -68 100 73 56 35 51 48 vhcurveto
            51 -43 46 -28 40 -15 rrcurveto
            -378 542 rmoveto
            62 36 52 62 56 20 -46 -44 -72 -66 -50 -69 -52 vhcurveto
            -24 52 -15 51 47 vvcurveto
            66 -514 rmoveto
            -84 -72 60 92 71 54 51 63 49 hvcurveto
            48 -91 73 -88 72 -67 rrcurveto
            -45 -43 -53 -32 -58 hhcurveto
            endchar
          </CharString>
          <CharString index="19">
            rmoveto
            66 50 38 56 48 hvcurveto
            2 hlineto
            hintmask 01111000
            4 -82 rlineto
            26 478 -30 -358 hlineto
            hintmask 10111000
            -72 -60 -44 -32 -60 hhcurveto
            -82 -34 52 106 hvcurveto
            304 -30 -308 vlineto
            -124 46 -58 98 vhcurveto
            endchar
          </CharString>
          <CharString index="20">
            30 366 hlineto
            64 62 44 32 60 hhcurveto
            82 34 -52 -106 hvcurveto
            -304 30 308 vlineto
            124 -46 58 -98 -66 -50 -38 return
          </CharString>
          <CharString index="21">
            574 rmoveto
            112 130 rlineto
            4 hlineto
            112 -130 18 16 -118 146 rlineto
            -28 hlineto
            -118 -146 rlineto
            return
          </CharString>
          <CharString index="22">
            rmoveto
            86 58 36 58 50 hvcurveto
            -20 20 rlineto
            -56 -50 -52 -28 -70 hhcurveto
            -148 -92 3 callgsubr
            92 120 152 62 50 -28 -42 36 hvcurveto
            20 22 rlineto
            40 -34 -58 38 -76 hhcurveto
            -168 -110 2 callsubr
            110 -136 162 hvcurveto
            endchar
          </CharString>
          <CharString index="23">
            572 rmoveto
            28 hlineto
            118 146 -18 16 -112 -130 rlineto
            -4 hlineto
            -112 130 -18 -16 rlineto
            return
          </CharString>
          <CharString index="24">
            29 0 28 268 28 300 28 hstemhm
            58 60 -6 32 20 30 hintmask 11110100
            118 28 rmoveto
            4 vlineto
            48 46 28 52 88 vvcurveto
            28 -3 26 -6 24 vhcurveto
            161 28 hlineto
            hintmask 11101100
            -167 hlineto
            -15 56 -20 51 57 vvcurveto
            74 44 62 86 56 36 -28 -34 28 vhcurveto
            22 20 rlineto
            36 -28 -44 34 -68 hhcurveto
            -102 -62 -64 -102 -56 19 -52 15 -54 hvcurveto
            -26 hlineto
            -66 -2 rlineto
            -26 vlineto
            hintmask 11110100
            100 hlineto
            6 -25 4 -26 -27 vvcurveto
            -78 -30 -78 -76 -44 vhcurveto
            -18 360 28 vlineto
            endchar
          </CharString>
          <CharString index="25">
            29 -98 28 446 42 callgsubr
            222.5 30 vstem
            362 644 rmoveto
            29 19 -9 -7 16 hvcurveto
            10 26 rlineto
            8 -18 -20 10 -34 hhcurveto
            -86 -39 -80 -122 -13 hvcurveto
            -7 -66 rlineto
            -35 hlineto
            -66 -4 rlineto
            -24 98 vlineto
            -30 -278 rlineto
            -92 -10 -28 -76 -74 hhcurveto
            -20 -18 4 8 -16 hvcurveto
            -12 -24 rlineto
            -10 18 20 -6 24 hhcurveto
            92 41 74 124 13 hvcurveto
            30 276 rlineto
            146 28 -143 hlineto
            7 68 rlineto
            86 9 25 86 72 hhcurveto
            endchar
          </CharString>
          <CharString index="26">
            rmoveto
            138 164 rlineto
            28 vlineto
            -138 164 -20 -18 124 -160 -124 -162 rlineto
            return
          </CharString>
          <CharString index="27">
            29 -12 28 -27 27 608 28 98 -20 hstemhm
            88 32 108 30 122 32 hintmask 01111110
            412 148 rmoveto
            234 -292 -66 186 vvcurveto
            68 50 54 72 64 30 -24 -38 38 vhcurveto
            20 20 -34 36 -37 30 -65 4 rlinecurve
            98 -30 -99 vlineto
            -80 -7 -60 -61 -83 -206 292 62 -210 vvcurveto
            -76 -48 -54 -88 -72 -56 38 34 -36 vhcurveto
            -18 -22 37 -35 58 -37 71 -5 rlinecurve
            hintmask 10111110
            -99 30 98 vlineto
            hintmask 01111110
            86 6 68 59 95 vvcurveto
            endchar
          </CharString>
          <CharString index="28">
            -173 -152 22 396 24 396 22 hstemhm
            124 32 16 62 hintmask 11110000
            18 -152 rmoveto
            30 hlineto
            72 36 26 100 hvcurveto
            74 -8 66 70 vvcurveto
            hintmask 11111000
            42 16 40 70 vhcurveto
            24 vlineto
            hintmask 11110000
            -70 -16 40 40 hvcurveto
            72 8 66 74 vvcurveto
            100 -36 26 -72 vhcurveto
            -30 -22 32 hlineto
            64 16 -36 -72 hvcurveto
            -66 -6 -56 -74 vvcurveto
            -56 10 -34 38 -12 vhcurveto
            -4 vlineto
            -38 -12 -10 -36 -54 -74 6 -56 -66 vvcurveto
            -72 -16 -36 -64 vhcurveto
            -32 hlineto
            endchar
          </CharString>
          <CharString index="29">
            rmoveto
            -108 -60 90 132 124 78 100 102 50 44 -18 -48 54 hvcurveto
            -296 vlineto
            -54 -54 -50 -30 -56 hhcurveto
            return
          </CharString>
          <CharString index="30">
            rmoveto
            -104 callsubr
            return
          </CharString>
          <CharString index="31">
            -106 hlineto
            -74 -20 30 36 34 20 22 22 18 hvcurveto
            -14 22 32 -8 28 hhcurveto
            92 72 74 96 54 -24 46 -34 28 hvcurveto
            116 28 -160 hlineto
            return
          </CharString>
          <CharString index="32">
            34 vstem
            100 hmoveto
            148 hlineto
            204 92 136 196 196 -92 132 -204 hvcurveto
            -148 hlineto
            32 -632 rmoveto
            604 112 vlineto
            188 78 -126 -174 -174 -78 -130 -188 hvcurveto
            return
          </CharString>
          <CharString index="33">
            -49 -12 78 -57 -21 666 28 hstemhm
            146 72 92 32 hintmask 01111000
            164 172 rmoveto
            28 hlineto
            -20 157 170 65 138 vvcurveto
            82 -54 68 -96 -68 -50 -34 -42 -38 vhcurveto
            20 -18 rlineto
            42 34 50 24 50 hhcurveto
            84 36 -60 -64 -130 -168 -58 22 -170 hvcurveto
            18 -184 rmoveto
            20 callgsubr
            24 hvcurveto
            hintmask 10111000
            26 -18 14 -18 -18 -18 -14 -26 vhcurveto
            hintmask 01111000
            -24 18 -14 18 vhcurveto
            endchar
          </CharString>
          <CharString index="34">
            29 21 -21 612 28 hstem
            192 34 vstem
            192 hmoveto
            34 hlineto
            10 250 40 166 154 206 rrcurveto
            18 -386 -28 344 vlineto
            -130 -182 -56 -166 -10 -264 rrcurveto
            endchar
          </CharString>
          <CharString index="35">
            29 0 28 552 22 -22 60 hstemhm
            238 30 hintmask 10110000
            86 hmoveto
            324 28 -142 612 -26 hlineto
            hintmask 11010000
            -28 -16 -40 -14 -50 -8 rrcurveto
            hintmask 10110000
            -22 114 -552 -152 vlineto
            endchar
          </CharString>
          <CharString index="36">
            710 rmoveto
            28 hlineto
            116 114 -14 16 -114 -100 rlineto
            -4 hlineto
            -114 100 -14 -16 rlineto
            return
          </CharString>
          <CharString index="37">
            -49 -204 28 588 78 hstem
            52 32 92 72 vstem
            212 412 rmoveto
            20 callgsubr
            26 24 -18 14 -18 -18 -18 -14 -24 -26 18 -44 callsubr
            -10 -616 rmoveto
            68 50 34 42 38 hvcurveto
            -20 18 rlineto
            -42 -34 -50 -24 -50 hhcurveto
            -84 -36 60 64 130 168 58 -22 170 hvcurveto
            -28 hlineto
            20 -157 -170 -65 -138 vvcurveto
            -82 54 -68 96 vhcurveto
            endchar
          </CharString>
          <CharString index="38">
            -115 402 26 136 26 118 26 hstem
            32 30 208 28 vstem
            180 402 rmoveto
            48 32 18 16 26 hvcurveto
            -14 22 rlineto
            -16 -22 -32 -14 -36 hhcurveto
            -74 -46 56 80 hvcurveto
            234 hlineto
            2 16 0 4 10 vvcurveto
            48 -22 92 -102 -78 -64 -64 -102 -108 66 -58 82 vhcurveto
            -118 188 rmoveto
            72 8 42 46 62 hhcurveto
            72 24 -64 -54 hvcurveto
            endchar
          </CharString>
          <CharString index="39">
            -35 69 30 434 30 hstem
            189 30 vstem
            188 -80 rmoveto
            32 hlineto
            -2 150 128 -2 rlineto
            32 vlineto
            -128 -2 2 218 -2 218 -66 callsubr
            -2 -218 2 -218 36 callsubr
          </CharString>
          <CharString index="40">
            86 52 74 134 132 -52 74 -86 -86 -52 -74 -132 -134 52 -74 86 hvcurveto
            return
          </CharString>
          <CharString index="41">
            128 -2 rlineto
            32 vlineto
            -128 -2 2 150 -28 callsubr
            2 -150 -128 2 rlineto
            -32 vlineto
            128 2 return
          </CharString>
          <CharString index="42">
            vstem
            96 hmoveto
            30 132 hlineto
            114 134 166 -266 rlineto
            34 hlineto
            -182 290 154 188 rlineto
            -36 hlineto
            -248 -304 rlineto
            -2 548 -30 hlineto
            return
          </CharString>
          <CharString index="43">
            32 vstem
            91 hmoveto
            138 hlineto
            121 115 49 198 hvcurveto
            55 vlineto
            167 -1 -72 76 -120 hhcurveto
            -152 hlineto
            -37 -158 -23 -113 26 -58 99 -19 rlinecurve
            12 29 -90 17 -14 48 22 96 rlinecurve
            31 128 rlineto
            126 hlineto
            108 53 -68 -147 hvcurveto
            -53 vlineto
            -177 -96 -40 -108 vhcurveto
            -138 hlineto
            return
          </CharString>
          <CharString index="44">
            710 rmoveto
            126 112 -22 24 -118 -120 rlineto
            return
          </CharString>
          <CharString index="45">
            114 -100 14 16 -116 114 rlineto
            -28 hlineto
            -116 -114 return
          </CharString>
          <CharString index="46">
            52 40 38 56 56 -40 38 -52 -52 -40 -38 -56 -56 40 -38 52 hvcurveto
            22 vmoveto
            -38 -30 28 44 44 30 28 38 38 30 -28 -44 -44 -30 -28 -38 hvcurveto
            return
          </CharString>
          <CharString index="47">
            344 28 -304 hlineto
            294 434 rlineto
            16 -302 -28 262 vlineto
            -294 -434 rlineto
            return
          </CharString>
          <CharString index="48">
            -55 48 callsubr
            178 34 100 34 vstem
            74 74 -81 callsubr
            154 -16 4 callgsubr
          </CharString>
          <CharString index="49">
            -195 -12 78 -57 -21 682 -20 hstemhm
            88 72 -52 32 hintmask 01101000
            112 172 rmoveto
            24 hlineto
            4 436 rlineto
            62 -32 -62 vlineto
            hintmask 01110000
            16 -620 rmoveto
            20 callgsubr
            24 hvcurveto
            hintmask 10110000
            26 -18 14 -18 -18 -18 -14 -26 vhcurveto
            hintmask 01110000
            -24 18 -14 18 vhcurveto
            endchar
          </CharString>
          <CharString index="50">
            -149 234 30 hstem
            40 216 vstem
            40 234 rmoveto
            216 30 -216 hlineto
            endchar
          </CharString>
          <CharString index="51">
            -49 callgsubr
            hvcurveto
            return
          </CharString>
          <CharString index="52">
            -173 730 -20 hstem
            90 28 vstem
            222 -174 rmoveto
            18 12 rlineto
            -80 126 -42 154 160 vvcurveto
            160 42 154 80 126 vhcurveto
            -18 12 rlineto
            -82 -132 -50 -144 -176 vvcurveto
            -176 50 -144 82 -132 vhcurveto
            endchar
          </CharString>
          <CharString index="53">
            77 21 -34 callgsubr
            return
          </CharString>
          <CharString index="54">
            -22 14 -14 18 return
          </CharString>
          <CharString index="55">
            -195 412 78 hstemhm
            88 72 -52 32 hintmask 00000000
            hintmask 11000000
            124 412 rmoveto
            20 callgsubr
            26 24 -18 14 -18 -18 -18 -14 -24 -26 18 -44 callsubr
            hintmask 10100000
            -16 -604 rmoveto
            32 62 hlineto
            -4 436 rlineto
            -24 hlineto
            -4 -436 rlineto
            endchar
          </CharString>
          <CharString index="56">
            64 60 36 40 50 hvcurveto
            2 hlineto
            return
          </CharString>
          <CharString index="57">
            rmoveto
            16 11 14 16 -13 callsubr
            hvcurveto
            endchar
          </CharString>
          <CharString index="58">
            52 28 49 57 2 hvcurveto
            -24 2 rlineto
            -48 -6 -21 -32 -31 -58 -20 82 -78 hhcurveto
            return
          </CharString>
          <CharString index="59">
            574 rmoveto
            18 16 -132 154 -24 -20 rlineto
            return
          </CharString>
          <CharString index="60">
            4 -64 rlineto
            26 722 -30 -202 hlineto
            2 -90 rlineto
            38 -50 -36 callsubr
            hvcurveto
            return
          </CharString>
          <CharString index="61">
            43 -35 callsubr
            return
          </CharString>
          <CharString index="62">
            32 vstem
            55 hmoveto
            114 hlineto
            141 87 77 168 hvcurveto
            55 vlineto
            168 -87 77 -141 vhcurveto
            -114 -30 114 hlineto
            128 68 -68 -147 hvcurveto
            -55 vlineto
            -147 -68 -68 -128 vhcurveto
            -114 hlineto
            return
          </CharString>
          <CharString index="63">
            -14 18 hvcurveto
            return
          </CharString>
          <CharString index="64">
            30 434 hlineto
            62 -2 56 -2 62 vhcurveto
            4 hlineto
            76 -130 292 -484 rlineto
            34 660 -30 -428 hlineto
            -62 2 -60 2 -64 vhcurveto
            -4 hlineto
            -76 130 -292 484 rlineto
            -34 hlineto
            endchar
          </CharString>
          <CharString index="65">
            rmoveto
            26 hlineto
            6 140 rlineto
            60 -38 -60 vlineto
            return
          </CharString>
          <CharString index="66">
            55 660 -20 hstem
            42 274 54 32 vstem
            290 250 rmoveto
            26 410 -44 hlineto
            -136 -94 -58 -148 -148 100 -56 148 hvcurveto
            80 -330 rmoveto
            32 740 -32 hlineto
            endchar
          </CharString>
          <CharString index="67">
            67 -39 callsubr
            return
          </CharString>
          <CharString index="68">
            0 -1 callgsubr
            return
          </CharString>
          <CharString index="69">
            29 638 32 hstem
            68 336 vstem
            68 292 rmoveto
            32 hlineto
            82 214 52 132 rlineto
            4 hlineto
            52 -132 82 -214 14 callgsubr
            -150 378 rlineto
            -36 hlineto
            endchar
          </CharString>
          <CharString index="70">
            29 21 -21 196 28 358 58 0 -20 hstemhm
            return
          </CharString>
          <CharString index="71">
            -40 22 -58 hhcurveto
            -116 -98 -98 -154 return
          </CharString>
          <CharString index="72">
            -12 -53 callgsubr
            return
          </CharString>
          <CharString index="73">
            28 222 28 196 28 return
          </CharString>
          <CharString index="74">
            80 55 -38 -117 hvcurveto
            return
          </CharString>
          <CharString index="75">
            4 48 rlineto
            2 hlineto
            -36 46 54 -24 46 hhcurveto
            2 28 rmoveto
            -38 -56 18 48 -56 hvcurveto
            296 vlineto
            54 60 56 -31 callsubr
            return
          </CharString>
          <CharString index="76">
            30 50 hhcurveto
            118 44 -94 -122 -134 -74 -96 -104 hvcurveto
            return
          </CharString>
          <CharString index="77">
            32 vstem
            416 hmoveto
            32 360 hlineto
            -33 callgsubr
            -218 -30 216 hlineto
            -33 callsubr
            -349 -360 rmoveto
            32 335 -27 hlineto
            -5 -67 rlineto
            return
          </CharString>
          <CharString index="78">
            vstem
            194 hmoveto
            36 hlineto
            180 478 -28 callsubr
            -114 -310 -16 -46 -18 -48 -16 -42 12 callsubr
            -16 42 -18 48 -16 46 -114 310 rcurveline
            -34 hlineto
            return
          </CharString>
          <CharString index="79">
            rlineto
            -32 hlineto
            return
          </CharString>
          <CharString index="80">
            -224 -304 20 -26 rlineto
            12 24 14 8 30 hhcurveto
            108 56 -63 -101 -108 -73 -74 -83 -87 -47 34 35 -36 hvcurveto
            -20 -22 rlineto
            -35 38 53 -40 97 hhcurveto
            return
          </CharString>
          <CharString index="81">
            -12 -9 callsubr
            return
          </CharString>
          <CharString index="82">
            18 callgsubr
            328 32 vstem
            96 -222 rmoveto
            30 270 hlineto
            -38 52 50 -22 46 hhcurveto
            -21 callsubr
            -58 -36 -38 return
          </CharString>
          <CharString index="83">
            rmoveto
            -13 callsubr
            16 11 14 16 vhcurveto
            endchar
          </CharString>
          <CharString index="84">
            205 -12 callsubr
            return
          </CharString>
          <CharString index="85">
            -171 158 212 hstem
            40 192 vstem
            136 158 rmoveto
            48 48 40 66 66 -48 40 -48 -48 -48 -40 -66 -66 48 -40 48 hvcurveto
            endchar
          </CharString>
          <CharString index="86">
            114 98 96 162 148 -62 96 -130 -60 return
          </CharString>
          <CharString index="87">
            rmoveto
            -104 callgsubr
            return
          </CharString>
          <CharString index="88">
            29 -12 28 340 42 callgsubr
            return
          </CharString>
          <CharString index="89">
            -62 -10 -46 -56 -20 -20 6 4 -12 vhcurveto
            return
          </CharString>
          <CharString index="90">
            -20 hstem
            34 32 vstem
            438 152 rmoveto
            32 vlineto
            -372 146 rlineto
            4 vlineto
            372 146 rlineto
            32 vlineto
            -404 -162 rlineto
            -36 vlineto
            return
          </CharString>
          <CharString index="91">
            vmoveto
            -14 callsubr
          </CharString>
          <CharString index="92">
            rmoveto
            30 478 -30 hlineto
            endchar
          </CharString>
          <CharString index="93">
            -95 callsubr
            endchar
          </CharString>
          <CharString index="94">
            -49 callgsubr
            17 callgsubr
            return
          </CharString>
          <CharString index="95">
            -12 5 callsubr
            return
          </CharString>
          <CharString index="96">
            rmoveto
            -38 -54 18 48 -58 hvcurveto
            296 vlineto
            54 62 54 26 callsubr
          </CharString>
          <CharString index="97">
            608 -84 callgsubr
            return
          </CharString>
          <CharString index="98">
            28 17 callsubr
            return
          </CharString>
          <CharString index="99">
            32 vstem
            334 -6 callsubr
            72 30 -401 -30 296 hlineto
            -18 -29 -9 -40 -48 vvcurveto
            return
          </CharString>
          <CharString index="100">
            -2 -10 -4 0 -4 hhcurveto
            -12 -8 10 20 hvcurveto
            return
          </CharString>
          <CharString index="101">
            hmoveto
            32 398 hlineto
            36 5 47 23 34 vhcurveto
            return
          </CharString>
          <CharString index="102">
            21 24 callgsubr
            return
          </CharString>
          <CharString index="103">
            522 301 rmoveto
            197 -6 -95 50 -97 hhcurveto
            -70 -69 -38 -87 -27 hvcurveto
            -59 122 rlineto
            -33 hlineto
            76 -154 rlineto
            return
          </CharString>
          <CharString index="104">
            244 hmoveto
            32 632 214 28 -460 -28 214 hlineto
            return
          </CharString>
          <CharString index="105">
            187 -12 30 642 -20 return
          </CharString>
          <CharString index="106">
            hstem
            56 34 468 34 vstem
            return
          </CharString>
          <CharString index="107">
            -83 -160 870 hstem
            2 350 vstem
            322 -160 rmoveto
            30 hlineto
            -320 870 rlineto
            -30 hlineto
            endchar
          </CharString>
          <CharString index="108">
            157 -12 30 272 28 324 30 return
          </CharString>
          <CharString index="109">
            -132 -208 -208 return
          </CharString>
          <CharString index="110">
            21 -21 515 30 hstem
            return
          </CharString>
          <CharString index="111">
            -83 -160 870 hstem
            8 350 vstem
            8 -160 rmoveto
            30 hlineto
            320 870 rlineto
            -30 hlineto
            endchar
          </CharString>
          <CharString index="112">
            30 624 30 return
          </CharString>
          <CharString index="113">
            118 58 vlineto
            -222 26 rmoveto
            78 112 58 84 rlineto
            4 hlineto
            -4 -102 rlineto
            -94 vlineto
            endchar
          </CharString>
          <CharString index="114">
            hstem
            54 32 return
          </CharString>
          <CharString index="115">
            357 236 28 hstem
            40 720 vstem
            40 236 rmoveto
            720 28 -720 hlineto
            endchar
          </CharString>
          <CharString index="116">
            -44 -32 -28 -44 -42 vvcurveto
            -80 74 -54 122 vhcurveto
            return
          </CharString>
          <CharString index="117">
            hstem
            98 32 372 30 vstem
            return
          </CharString>
          <CharString index="118">
            -162 78 -88 120 return
          </CharString>
          <CharString index="119">
            rlinecurve
            -4 hlineto
            return
          </CharString>
          <CharString index="120">
            37 236 28 hstem
            40 400 vstem
            40 236 rmoveto
            400 28 -400 hlineto
            endchar
          </CharString>
          <CharString index="121">
            600 -20 callsubr
            return
          </CharString>
          <CharString index="122">
            rmoveto
            -18 -14 -14 -20 -53 callsubr
            -52 callgsubr
            20 -14 14 -18 hvcurveto
            endchar
          </CharString>
          <CharString index="123">
            hstemhm
            60 32 282 30 hintmask 10111100
            return
          </CharString>
          <CharString index="124">
            446 28 return
          </CharString>
          <CharString index="125">
            -202 rmoveto
            20 26 10 12 14 hvcurveto
            -14 20 rlineto
            -10 -14 -12 -4 -18 hhcurveto
            -26 return
          </CharString>
          <CharString index="126">
            -24 16 -12 20 4 4 0 1 4 vhcurveto
            -1 -56 -30 -41 -41 -24 12 -24 rcurveline
            return
          </CharString>
          <CharString index="127">
            28 5 40 callsubr
            hstemhm
            return
          </CharString>
          <CharString index="128">
            59 43 callgsubr
            return
          </CharString>
          <CharString index="129">
            28 hstem
            100 32 return
          </CharString>
          <CharString index="130">
            18 callgsubr
            vstem
            return
          </CharString>
          <CharString index="131">
            45 39 34 50 51 -39 33 -45 -47 -37 -33 -51 -50 37 -34 47 hvcurveto
            return
          </CharString>
          <CharString index="132">
            -360 32 360 vlineto
            -33 callgsubr
            -207 -398 hlineto
            return
          </CharString>
          <CharString index="133">
            -31 callsubr
            endchar
          </CharString>
          <CharString index="134">
            -36 callsubr
            11 callsubr
            return
          </CharString>
          <CharString index="135">
            -12 26 244 26 92 26 244 26 hstem
            42 30 216 30 return
          </CharString>
          <CharString index="136">
            10 -233 -167 -66 -133 -14 -64 522 rcurveline
            -32 hlineto
            return
          </CharString>
          <CharString index="137">
            28 hstem
            -120 240 vstem
            -120 return
          </CharString>
          <CharString index="138">
            -223 -229 -21 1000 -20 hstem
            96 28 vstem
            96 return
          </CharString>
          <CharString index="139">
            52 32 40 54 68 vvcurveto
            38 -18 24 -26 vhcurveto
            endchar
          </CharString>
          <CharString index="140">
            32 660 -32 hlineto
            endchar
          </CharString>
          <CharString index="141">
            142 82 -48 -100 -112 -86 -50 -138 hvcurveto
            return
          </CharString>
          <CharString index="142">
            20 callsubr
            54 32 return
          </CharString>
          <CharString index="143">
            -128 2 rlineto
            -32 vlineto
            128 2 rlineto
            endchar
          </CharString>
          <CharString index="144">
            28 -24 -20 98 28 hstemhm
            return
          </CharString>
          <CharString index="145">
            21 20 -13 11 -18 -16 -13 -11 -20 -21 13 return
          </CharString>
          <CharString index="146">
            5 callsubr
            hstem
            56 34 return
          </CharString>
          <CharString index="147">
            -32 callgsubr
            232 -20 return
          </CharString>
          <CharString index="148">
            -20 23 callsubr
            return
          </CharString>
          <CharString index="149">
            32 130 -20 hstem
            return
          </CharString>
          <CharString index="150">
            hintmask 11011100
            136 -32 vlineto
            hintmask 11101100
            -136 return
          </CharString>
          <CharString index="151">
            vstem
            -39 768 rmoveto
            25 24 -62 66 rlineto
            return
          </CharString>
          <CharString index="152">
            97 -201 -21 210 -9 callsubr
            return
          </CharString>
          <CharString index="153">
            -21 338 28 294 -20 hstem
            100 32 return
          </CharString>
          <CharString index="154">
            -12 rmoveto
            114 return
          </CharString>
          <CharString index="155">
            74 356 hstem
            return
          </CharString>
        <CharString name=".notdef">
          181 0 32 578 50 -34 34 hstemhm
          96 38 354 40 hintmask 10111000
          96 hmoveto
          432 660 -432 hlineto
          214 -294 rmoveto
          -56 92 -94 168 rlineto
          302 hlineto
          -94 -168 -54 -92 rlineto
          -180 -292 rmoveto
          hintmask 11011000
          536 vlineto
          154 -270 rlineto
          200 -266 rmoveto
          -152 266 152 270 rlineto
          -344 -578 rmoveto
          102 176 64 106 rlineto
          4 hlineto
          62 -106 100 -176 rlineto
          endchar
        </CharString>
        <CharString name="A">
          -54 callsubr
          hstem
          10 500 vstem
          476 hmoveto
          -105 callgsubr
        </CharString>
        <CharString name="AE">
          361 0 28 198 28 84 28 266 28 hstem
          414 32 vstem
          17 callsubr
          rmoveto
          34 callgsubr
          -350 vlineto
          -372 -660 rlineto
          34 hlineto
          127 226 rlineto
          227 -226 344 28 hlineto
          -555 226 rmoveto
          77 138 44 82 44 80 42 76 rlinecurve
          4 -376 hlineto
          endchar
        </CharString>
        <CharString name="Aacute">
          -54 callsubr
          66 -20 hstem
          10 500 vstem
          364 822 rmoveto
          -22 24 -118 -120 14 -16 rlineto
          238 -710 rmoveto
          -105 callgsubr
        </CharString>
        <CharString name="Abreve">
          -54 callsubr
          52 26 hstem
          128 26 212 26 vstem
          260 712 rmoveto
          -71 callgsubr
          216 -712 rmoveto
          -105 callgsubr
        </CharString>
        <CharString name="Acircumflex">
          -54 callsubr
          66 -20 104 30 hstem
          10 500 vstem
          258 810 rmoveto
          4 hlineto
          -62 callsubr
          14 -16 rlineto
          332 -710 rmoveto
          -105 callgsubr
        </CharString>
        <CharString name="Adieresis">
          -54 callsubr
          68 64 hstem
          132 64 128 64 vstem
          164 -98 callsubr
          120 -728 rmoveto
          -105 callgsubr
        </CharString>
        <CharString name="Agrave">
          -54 callsubr
          66 -20 hstem
          10 500 vstem
          296 726 rmoveto
          -118 120 -22 -24 126 -112 rlineto
          194 -710 rmoveto
          -105 callgsubr
        </CharString>
        <CharString name="Amacron">
          -54 callsubr
          86 28 hstem
          10 500 vstem
          380 774 rmoveto
          -240 -28 240 hlineto
          96 -746 rmoveto
          -105 callgsubr
        </CharString>
        <CharString name="Aring">
          -54 callsubr
          40 22 124 22 hstem
          176 24 118 26 vstem
          260 700 rmoveto
          24 callsubr
          146 vmoveto
          31 27 -23 -39 -41 -27 -21 -31 -33 -27 21 41 39 27 23 33 hvcurveto
          216 -846 rmoveto
          -105 callgsubr
        </CharString>
        <CharString name="Atilde">
          -54 callsubr
          62 37 callsubr
          100 24 272 24 hintmask 11110111
          182 804 rmoveto
          58 20 -82 78 hhcurveto
          -49 callsubr
          hintmask 11101111
          -52 -28 -49 -57 -2 hvcurveto
          24 -2 rlineto
          hintmask 11110111
          48 4 23 32 31 hhcurveto
          294 -804 rmoveto
          -105 callgsubr
        </CharString>
        <CharString name="B">
          131 -39 callsubr
          hstemhm
          100 32 322 32 10 32 hintmask 11110100
          19 callgsubr
          hintmask 11111100
          -41 callgsubr
          hintmask 11110100
          34 callsubr
          endchar
        </CharString>
        <CharString name="Bethb">
          97 21 -21 hstemhm
          64 32 -16 31 hintmask 11000000
          476 545 rmoveto
          -32 hlineto
          -129 -338 rlineto
          hintmask 10100000
          -160 221 -25 34 -20 53 1 30 rlinecurve
          -31 hlineto
          1 -34 16 -50 24 -33 47 -65 rcurveline
          hintmask 11000000
          -77 -35 -27 -65 -104 vvcurveto
          -159 32 159 vlineto
          93 15 56 72 33 vhcurveto
          247 -341 rlineto
          35 hlineto
          -131 181 rlineto
          endchar
        </CharString>
        <CharString name="C">
          119 -12 39 callsubr
          vstem
          328 -12 -85 callsubr
        </CharString>
        <CharString name="Ccaron">
          119 -12 callsubr
          38 30 hstem
          56 34 vstem
          304 -71 callsubr
          140 -836 -85 callsubr
        </CharString>
        <CharString name="Ccedilla">
          119 -12 39 callsubr
          vstem
          328 -12 -85 callsubr
        </CharString>
        <CharString name="D">
          157 0 28 604 22 callsubr
          378 -75 callsubr
          endchar
        </CharString>
        <CharString name="E">
          -40 callsubr
          hstem
          100 32 vstem
          100 hmoveto
          -82 callgsubr
          endchar
        </CharString>
        <CharString name="Eacute">
          -40 callsubr
          66 -20 hstem
          100 32 vstem
          260 -63 callsubr
          -146 -726 rmoveto
          -82 callgsubr
          endchar
        </CharString>
        <CharString name="Ebreve">
          -40 callsubr
          52 26 hstemhm
          100 32 18 26 212 26 hintmask 00000000
          hintmask 11111110
          282 712 rmoveto
          -71 callgsubr
          hintmask 11111000
          -182 -712 rmoveto
          -82 callgsubr
          endchar
        </CharString>
        <CharString name="Ecircumflex">
          -40 callsubr
          -28 94 84 30 hstemhm
          100 32 hintmask 11101100
          166 710 rmoveto
          114 100 rlineto
          4 hlineto
          hintmask 11011100
          -62 callsubr
          rlineto
          -52 -726 rmoveto
          364 28 -332 310 270 28 -270 hlineto
          hintmask 11101100
          266 322 28 -354 vlineto
          endchar
        </CharString>
        <CharString name="Edieresis">
          -40 callsubr
          -28 160 hstemhm
          100 32 22 64 128 64 hintmask 00000000
          hintmask 11011110
          186 -98 callsubr
          hintmask 11101000
          -278 -728 rmoveto
          -82 callgsubr
          endchar
        </CharString>
        <CharString name="Egrave">
          -40 callsubr
          66 -20 hstem
          100 32 vstem
          304 -36 callgsubr
          -78 -822 rmoveto
          -82 callgsubr
          endchar
        </CharString>
        <CharString name="Emacron">
          -40 callsubr
          86 22 callsubr
          vstem
          162 -10 callgsubr
          -62 -774 rmoveto
          -82 callgsubr
          endchar
        </CharString>
        <CharString name="Eogonek">
          67 -202 28 174 -1 callgsubr
          hstem
          100 32 204 30 vstem
          416 18 callsubr
          -26 18 36 60 51 50 45 10 hvcurveto
          2 28 -332 310 270 28 -270 266 322 28 -354 -660 308 hlineto
          -40 -26 -32 -46 -50 vvcurveto
          -54 36 -26 44 vhcurveto
          endchar
        </CharString>
        <CharString name="Eth">
          177 0 28 308 28 268 28 hstem
          120 32 378 34 vstem
          268 660 rmoveto
          -148 -296 hlineto
          -82 -2 rlineto
          -26 82 -336 148 vlineto
          204 92 136 196 196 -92 132 -204 hvcurveto
          -4 -632 rmoveto
          -112 308 168 28 -168 268 112 hlineto
          188 78 -126 -174 -174 -78 -130 -188 hvcurveto
          endchar
        </CharString>
        <CharString name="Euro">
          -105 callsubr
        </CharString>
        <CharString name="Euro.001">
          -105 callsubr
        </CharString>
        <CharString name="Euro.heb">
          97 endchar
        </CharString>
        <CharString name="Euro.heb.001">
          97 endchar
        </CharString>
        <CharString name="Euro.lat">
          -105 callsubr
        </CharString>
        <CharString name="Euro.lat.001">
          -105 callsubr
        </CharString>
        <CharString name="F">
          27 21 -21 326 28 278 22 callsubr
          vstem
          100 hmoveto
          32 326 270 28 -270 278 320 28 -352 hlineto
          endchar
        </CharString>
        <CharString name="G">
          1 callsubr
          hstem
          56 34 404 32 vstem
          334 -12 -96 callgsubr
        </CharString>
        <CharString name="Gcaron">
          1 callsubr
          38 30 hstem
          56 34 404 32 vstem
          328 -71 callsubr
          122 -836 -96 callgsubr
        </CharString>
        <CharString name="Gdotaccent">
          1 callsubr
          52 70 hstem
          56 34 218 68 118 32 vstem
          342 724 rmoveto
          26 callgsubr
          -8 -736 -96 callgsubr
        </CharString>
        <CharString name="H">
          191 21 46 callsubr
          370 -40 callgsubr
          endchar
        </CharString>
        <CharString name="Hbar">
          223 21 -21 338 28 130 28 -28 164 hstemhm
          120 32 370 32 hintmask 11101100
          628 524 rmoveto
          -74 hlineto
          43 callsubr
          -370 vlineto
          43 callsubr
          vlineto
          -82 -4 rlineto
          -24 82 -496 32 338 370 -338 32 496 74 vlineto
          -106 -130 rmoveto
          -370 130 370 hlineto
          endchar
        </CharString>
        <CharString name="I">
          -211 -5 callsubr
          hstem
          100 32 vstem
          100 hmoveto
          33 callsubr
        </CharString>
        <CharString name="Iacute">
          -211 -5 callsubr
          86 -20 hstem
          100 32 vstem
          94 -63 callsubr
          20 -726 37 callgsubr
        </CharString>
        <CharString name="Icircumflex">
          -211 -5 callsubr
          86 -20 104 30 hstem
          100 32 vstem
          710 vmoveto
          114 100 rlineto
          4 hlineto
          -62 callsubr
          rlineto
          114 -726 37 callgsubr
        </CharString>
        <CharString name="Idieresis">
          -211 -5 callsubr
          88 64 hstem
          -12 64 48 32 48 64 vstem
          20 -98 callsubr
          -112 -728 37 callgsubr
        </CharString>
        <CharString name="Igrave">
          -211 -5 callsubr
          86 -20 hstem
          100 32 vstem
          138 -36 callgsubr
          88 -822 37 callgsubr
        </CharString>
        <CharString name="Imacron">
          -211 -5 callsubr
          106 22 callsubr
          vstem
          -4 -10 callgsubr
          104 -774 37 callgsubr
        </CharString>
        <CharString name="J">
          13 -12 30 642 -20 hstem
          326 32 vstem
          200 -12 rmoveto
          116 42 82 104 hvcurveto
          486 -32 -482 vlineto
          -110 -40 -50 -84 -58 -40 22 58 -34 vhcurveto
          -26 -16 rlineto
          -60 32 54 -34 70 hhcurveto
          endchar
        </CharString>
        <CharString name="K">
          107 -5 callsubr
          hstem
          100 32 -65 callgsubr
          endchar
        </CharString>
        <CharString name="L">
          17 0 28 632 -20 hstem
          100 32 vstem
          100 hmoveto
          342 28 -310 632 -32 hlineto
          endchar
        </CharString>
        <CharString name="Lslash">
          17 0 28 632 -20 hstem
          104 32 vstem
          136 28 rmoveto
          250 vlineto
          204 106 -14 24 -190 -100 rlineto
          352 -32 -366 vlineto
          -96 -50 14 -24 82 44 rlineto
          -264 342 28 vlineto
          endchar
        </CharString>
        <CharString name="M">
          255 21 -21 74 36 522 28 hstem
          100 30 436 32 vstem
          100 hmoveto
          30 460 hlineto
          52 -2 66 -2 54 vhcurveto
          4 hlineto
          52 -146 150 -412 rlineto
          34 hlineto
          149 412 51 146 rlineto
          4 hlineto
          -2 -54 -2 -66 -52 vvcurveto
          -460 32 660 -52 vlineto
          -142 -400 -18 -50 -16 -50 -18 -50 12 callsubr
          -54 150 -142 400 rlineto
          -52 hlineto
          endchar
        </CharString>
        <CharString name="N">
          189 0 46 568 46 hstem
          100 30 372 30 vstem
          100 hmoveto
          -43 callsubr
        </CharString>
        <CharString name="Ntilde">
          189 0 46 568 46 62 37 callsubr
          100 30 32 24 272 24 20 30 hintmask 0000000000000000
          hintmask 1110111110000000
          400 722 rmoveto
          -49 callsubr
          hintmask 1101111010000000
          -3 callgsubr
          hintmask 1110111110000000
          58 20 -82 78 hhcurveto
          hintmask 1110111010000000
          -300 -722 rmoveto
          -43 callsubr
        </CharString>
        <CharString name="O">
          205 -12 30 624 30 -1 callsubr
          324 -12 rmoveto
          -107 callgsubr
          endchar
        </CharString>
        <CharString name="OE">
          385 -39 callsubr
          hstem
          56 34 348 32 vstem
          366 hmoveto
          416 28 -312 34 callgsubr
          -406 hlineto
          -210 -100 -132 -196 -196 100 -136 210 hvcurveto
          4 28 rmoveto
          -194 -86 130 174 174 86 126 194 hvcurveto
          68 -604 hlineto
          endchar
        </CharString>
        <CharString name="Oacute">
          -23 callsubr
          54 -20 -1 callsubr
          302 -63 callsubr
          36 -738 rmoveto
          -107 callgsubr
          endchar
        </CharString>
        <CharString name="Obreve">
          -23 callsubr
          40 26 hstem
          56 34 102 26 212 26 102 34 vstem
          324 712 rmoveto
          -71 callgsubr
          -724 vmoveto
          -107 callgsubr
          endchar
        </CharString>
        <CharString name="Ocircumflex">
          -23 callsubr
          54 -20 104 30 -1 callsubr
          208 710 rmoveto
          114 100 rlineto
          4 hlineto
          -62 callsubr
          rlineto
          130 -738 rmoveto
          -107 callgsubr
          endchar
        </CharString>
        <CharString name="Odieresis">
          -23 callsubr
          56 64 hstem
          56 34 106 64 128 64 106 34 vstem
          228 -98 callsubr
          -96 -740 rmoveto
          -107 callgsubr
          endchar
        </CharString>
        <CharString name="Ograve">
          -23 callsubr
          54 -20 -1 callsubr
          346 -36 callgsubr
          104 -834 rmoveto
          -107 callgsubr
          endchar
        </CharString>
        <CharString name="Omacron">
          -23 callsubr
          74 28 -1 callsubr
          204 -10 callgsubr
          120 -786 rmoveto
          -107 callgsubr
          endchar
        </CharString>
        <CharString name="Oslash">
          205 -12 30 -1 -21 646 30 -8 -20 hstemhm
          60 34 468 34 hintmask 00000000
          hintmask 10011100
          522 578 rmoveto
          64 86 rlineto
          hintmask 01101100
          -22 16 -60 -81 rlineto
          47 -46 -61 26 -69 hhcurveto
          -156 -112 -132 -208 -99 25 -82 43 -60 hvcurveto
          -70 -95 rlineto
          hintmask 10101100
          22 -16 66 89 rlineto
          -52 47 63 -29 72 hhcurveto
          156 112 136 208 hvcurveto
          hintmask 10011100
          103 -27 84 -47 59 vhcurveto
          hintmask 10101100
          -428 -246 rmoveto
          190 94 120 140 63 54 -24 -45 40 vhcurveto
          -337 -455 rlineto
          -34 54 -20 73 87 vvcurveto
          234 -314 rmoveto
          -66 -56 28 49 -41 hvcurveto
          338 456 rlineto
          37 -53 22 -75 -91 vvcurveto
          -190 -94 -124 -140 vhcurveto
          endchar
        </CharString>
        <CharString name="Otilde">
          -23 callsubr
          50 37 callsubr
          56 34 74 24 272 24 74 34 hintmask 1110111110000000
          402 722 rmoveto
          -49 callsubr
          hintmask 1101111110000000
          -3 callgsubr
          hintmask 1110111110000000
          58 20 -82 78 hhcurveto
          -78 -734 rmoveto
          -107 callgsubr
          endchar
        </CharString>
        <CharString name="P">
          99 21 -21 292 28 312 22 callsubr
          328 34 vstem
          100 hmoveto
          32 292 130 hlineto
          148 84 62 126 132 -86 48 -150 hvcurveto
          -158 hlineto
          32 -340 rmoveto
          312 114 vlineto
          144 70 36 callgsubr
        </CharString>
        <CharString name="Q">
          205 -152 32 109 27 626 30 -1 callsubr
          516 -120 rmoveto
          -85 -61 40 69 -29 hvcurveto
          147 9 104 133 201 vvcurveto
          208 -112 132 23 callgsubr
          -112 -132 -208 -199 102 -133 146 -11 vhcurveto
          -81 31 72 -60 107 hhcurveto
          30 30 6 4 16 hvcurveto
          -8 30 rlineto
          -4 -16 -20 -4 -30 hhcurveto
          -426 452 rmoveto
          190 94 120 140 140 94 -120 -190 -190 -94 -126 -140 -140 -94 126 190 vhcurveto
          endchar
        </CharString>
        <CharString name="R">
          91 21 -21 312 28 292 22 callsubr
          328 34 vstem
          504 hmoveto
          -188 314 rlineto
          110 10 68 61 105 vvcurveto
          122 -82 48 -130 vhcurveto
          -182 -660 32 312 148 hlineto
          186 -312 rlineto
          -334 340 rmoveto
          292 138 vlineto
          122 68 -38 -104 -102 -68 -48 -122 hvcurveto
          endchar
        </CharString>
        <CharString name="S">
          73 -12 callsubr
          hstem
          84 32 326 32 vstem
          268 -12 -99 callsubr
          endchar
        </CharString>
        <CharString name="Sacute">
          73 -12 callsubr
          54 -20 hstem
          84 32 326 32 vstem
          246 -63 callsubr
          36 -738 -99 callsubr
          endchar
        </CharString>
        <CharString name="Scaron">
          73 -12 callsubr
          38 30 hstem
          84 32 326 32 vstem
          254 -71 callsubr
          130 -836 -99 callsubr
          endchar
        </CharString>
        <CharString name="T">
          77 21 -21 632 28 hstem
          244 32 vstem
          -3 callsubr
          endchar
        </CharString>
        <CharString name="Thorn">
          113 21 -21 172 28 312 28 -28 148 hstemhm
          100 32 338 34 hintmask 11101100
          100 hmoveto
          32 172 140 hlineto
          148 84 62 126 132 -84 48 -148 hvcurveto
          -140 hlineto
          hintmask 11011100
          120 -32 vlineto
          32 -460 rmoveto
          hintmask 11101100
          312 128 vlineto
          142 68 36 callgsubr
        </CharString>
        <CharString name="U">
          -2 callsubr
          10 callsubr
          314 -12 -93 callgsubr
        </CharString>
        <CharString name="Uacute">
          -2 callsubr
          86 -20 10 callsubr
          292 -63 callsubr
          36 -738 -93 callgsubr
        </CharString>
        <CharString name="Ucircumflex">
          -2 callsubr
          86 -20 104 30 10 callsubr
          198 710 rmoveto
          114 100 rlineto
          4 hlineto
          -62 callsubr
          rlineto
          130 -738 -93 callgsubr
        </CharString>
        <CharString name="Udieresis">
          -2 callsubr
          88 64 hstem
          98 32 56 64 128 64 60 30 vstem
          218 -98 callsubr
          -96 -740 -93 callgsubr
        </CharString>
        <CharString name="Ugrave">
          -2 callsubr
          86 -20 10 callsubr
          336 -36 callgsubr
          104 -834 -93 callgsubr
        </CharString>
        <CharString name="Umacron">
          -2 callsubr
          106 28 10 callsubr
          194 -10 callgsubr
          120 -786 -93 callgsubr
        </CharString>
        <CharString name="V">
          39 0 41 619 -20 hstem
          6 470 -28 callgsubr
          endchar
        </CharString>
        <CharString name="W">
          321 0 44 578 38 hstem
          30 702 vstem
          184 hmoveto
          32 hlineto
          126 474 12 52 14 44 12 52 rlinecurve
          4 hlineto
          12 -52 12 -44 12 -52 128 -474 rcurveline
          32 hlineto
          152 660 -28 callsubr
          -88 -400 -16 -72 -14 -72 -16 -72 12 callsubr
          -54 216 -108 400 rlineto
          -36 hlineto
          -108 -400 -18 -72 -18 -72 -16 -72 12 callsubr
          -48 216 -88 400 rlineto
          -34 hlineto
          endchar
        </CharString>
        <CharString name="X">
          27 -5 callsubr
          hstem
          18 434 vstem
          18 hmoveto
          32 hlineto
          122 212 58 104 rlineto
          4 hlineto
          24 -40 20 -32 18 -32 122 -212 rcurveline
          34 hlineto
          -200 340 186 320 -28 callsubr
          -116 -204 -18 -30 -12 -22 -20 -36 12 callsubr
          -22 36 -14 22 -18 30 -116 204 rcurveline
          -34 hlineto
          186 -318 rlineto
          endchar
        </CharString>
        <CharString name="Y">
          -7 -5 callsubr
          hstem
          202 32 vstem
          202 hmoveto
          -37 callgsubr
        </CharString>
        <CharString name="Yacute">
          -7 -5 callsubr
          86 -20 hstem
          202 32 vstem
          196 -63 callsubr
          20 -726 rmoveto
          -37 callgsubr
        </CharString>
        <CharString name="Ydieresis">
          -7 -5 callsubr
          88 64 hstem
          90 64 48 32 48 64 vstem
          122 -98 callsubr
          -112 -728 rmoveto
          -37 callgsubr
        </CharString>
        <CharString name="Z">
          95 0 28 604 28 hstem
          52 436 vstem
          52 hmoveto
          -59 callgsubr
          endchar
        </CharString>
        <CharString name="ZWJ">
          858 36 hstem
          -150 34 233 34 vstem
          -150 785 rmoveto
          34 73 233 -73 34 109 -301 hlineto
          endchar
        </CharString>
        <CharString name="ZWNJ">
          767 217 hstem
          -104 207 vstem
          -81 767 rmoveto
          81 81 79 -80 24 24 -79 83 79 82 -24 25 -79 -82 -81 84 -23 -27 78 -82 -78 -83 rlineto
          endchar
        </CharString>
        <CharString name="Zcaron">
          95 0 28 604 28 50 30 hstem
          52 436 vstem
          264 -71 callsubr
          -96 -824 rmoveto
          -59 callgsubr
          endchar
        </CharString>
        <CharString name="a">
          -46 callsubr
          hstemhm
          60 32 282 30 hintmask 10111000
          198 -12 rmoveto
          -51 callsubr
          hintmask 01111000
          -103 callgsubr
          hintmask 10111000
          -92 callgsubr
          endchar
        </CharString>
        <CharString name="a.sups">
          -75 callgsubr
        </CharString>
        <CharString name="aacute">
          -46 callsubr
          234 -20 16 callsubr
          226 -70 callgsubr
          -10 -602 -99 callgsubr
        </CharString>
        <CharString name="abreve">
          -46 callsubr
          80 26 hstemhm
          60 32 22 26 234 30 -24 26 hintmask 00000000
          hintmask 10111101
          260 -58 callgsubr
          hintmask 10111010
          -62 -582 rmoveto
          -51 callsubr
          hintmask 01111010
          -103 callgsubr
          hintmask 10111010
          -92 callgsubr
          endchar
        </CharString>
        <CharString name="acircumflex">
          -46 callsubr
          214 32 16 callsubr
          146 -86 callsubr
          70 -602 -99 callgsubr
        </CharString>
        <CharString name="acute">
          89 724 -20 hstem
          214 156 vstem
          232 -70 callgsubr
          endchar
        </CharString>
        <CharString name="acutecomb">
          724 -20 hstem
          -52 156 vstem
          -34 -70 callgsubr
          endchar
        </CharString>
        <CharString name="acutecomb.cap">
          726 -20 hstem
          -36 140 vstem
          -22 -63 callsubr
          endchar
        </CharString>
        <CharString name="adieresis">
          -46 callsubr
          112 64 hstemhm
          60 32 50 64 108 64 -4 30 hintmask 10111101
          174 602 rmoveto
          18 14 14 18 18 -14 14 -18 -18 -14 -14 -18 -18 14 -44 callsubr
          hintmask 10111110
          172 hmoveto
          18 14 14 18 18 -14 14 -18 -18 -14 -14 -18 -18 14 -44 callsubr
          -148 -614 rmoveto
          hintmask 10111101
          -51 callsubr
          hintmask 01111101
          -103 callgsubr
          hintmask 10111110
          -91 64 -38 74 vhcurveto
          2 28 rmoveto
          -58 -50 28 74 hvcurveto
          hintmask 10111101
          82 72 48 210 24 vhcurveto
          -174 vlineto
          hintmask 10111110
          -54 -64 -52 -28 -58 hhcurveto
          endchar
        </CharString>
        <CharString name="ae">
          341 -12 28 222 26 198 28 hstem
          68 32 276 30 310 30 vstem
          206 -12 rmoveto
          60 82 40 62 62 hvcurveto
          -50 34 50 -52 88 hhcurveto
          72 36 24 22 36 hvcurveto
          -14 26 rlineto
          -26 -36 -38 -18 -54 hhcurveto
          -102 -78 94 128 2 hvcurveto
          338 hlineto
          2 12 0 10 10 vvcurveto
          142 -66 78 -110 -72 -64 -50 -76 -34 vhcurveto
          76 -14 -46 50 -80 hhcurveto
          -72 -66 -40 -22 -30 hvcurveto
          16 -24 rlineto
          24 30 58 34 62 hhcurveto
          100 20 -86 -78 -2 hvcurveto
          -208 -24 -100 -50 -108 vvcurveto
          -90 64 -38 74 vhcurveto
          200 276 rmoveto
          116 10 70 82 84 hhcurveto
          90 56 -66 -132 hvcurveto
          -508 -248 rmoveto
          -58 -50 28 74 82 76 48 200 24 hvcurveto
          -28 vlineto
          -48 8 -50 14 -30 vhcurveto
          -64 -58 -78 -36 -54 hhcurveto
          endchar
        </CharString>
        <CharString name="agrave">
          -46 callsubr
          234 -20 16 callsubr
          294 -48 callsubr
          42 -736 -99 callgsubr
        </CharString>
        <CharString name="alphalatin">
          97 -12 11 callgsubr
          328 30 vstem
          -12 callgsubr
          -50 10 -26 38 12 6 2 2 8 vhcurveto
          -6 26 rlineto
          -7 callsubr
          432 -28 vlineto
          -2 -46 rlineto
          -2 hlineto
          36 25 callgsubr
          hvcurveto
          2 28 -78 callsubr
          endchar
        </CharString>
        <CharString name="amacron">
          -46 callsubr
          118 28 16 callsubr
          140 -10 callsubr
          58 -648 -99 callgsubr
        </CharString>
        <CharString name="ampersand">
          -89 callsubr
        </CharString>
        <CharString name="ampersand.lat">
          -89 callsubr
        </CharString>
        <CharString name="approxequal">
          29 170 28 64 28 80 28 64 28 hstem
          42 388 vstem
          326 370 rmoveto
          -63 callgsubr
          -200 vmoveto
          -63 callgsubr
          endchar
        </CharString>
        <CharString name="aring">
          -46 callsubr
          56 22 144 22 hstemhm
          60 32 76 24 136 24 22 30 hintmask 0000000000000000
          hintmask 1011111110000000
          260 546 rmoveto
          -61 callsubr
          -62 -580 rmoveto
          hintmask 1011111010000000
          -51 callsubr
          hintmask 0111111010000000
          -103 callgsubr
          hintmask 1011111110000000
          -91 64 -38 74 vhcurveto
          2 28 rmoveto
          -58 -50 28 74 hvcurveto
          hintmask 1011111010000000
          82 72 48 210 24 vhcurveto
          -174 vlineto
          hintmask 1011111110000000
          -54 -64 -52 -28 -58 hhcurveto
          endchar
        </CharString>
        <CharString name="asciicircum">
          -38 callsubr
        </CharString>
        <CharString name="asciicircum.lat">
          -38 callsubr
        </CharString>
        <CharString name="asciitilde">
          29 270 28 64 28 hstem
          42 388 vstem
          326 270 rmoveto
          -63 callgsubr
          endchar
        </CharString>
        <CharString name="asterisk">
          -42 callgsubr
        </CharString>
        <CharString name="asterisk.lat">
          -42 callgsubr
        </CharString>
        <CharString name="at">
          -96 callsubr
        </CharString>
        <CharString name="at.lat">
          -96 callsubr
        </CharString>
        <CharString name="atilde">
          -46 callsubr
          90 26 74 26 hstemhm
          60 32 8 26 248 30 -10 26 hintmask 0000000000000000
          hintmask 1011111010000000
          337 -92 callsubr
          hintmask 1011110100000000
          -139 -592 rmoveto
          -51 callsubr
          hintmask 0111110100000000
          -103 callgsubr
          hintmask 1011110100000000
          -92 callgsubr
          endchar
        </CharString>
        <CharString name="b">
          95 -12 20 callsubr
          96 30 328 32 hintmask 10111100
          274 -12 rmoveto
          -21 callsubr
          -60 -36 -42 -50 hvcurveto
          2 96 rlineto
          214 -30 vlineto
          hintmask 01111100
          -722 26 vlineto
          hintmask 10111100
          -32 callsubr
          endchar
        </CharString>
        <CharString name="backslash">
          0 callsubr
        </CharString>
        <CharString name="backslash.lat">
          0 callsubr
        </CharString>
        <CharString name="bar">
          31 callsubr
          -250 rmoveto
          28 1000 -28 hlineto
          endchar
        </CharString>
        <CharString name="braceleft">
          -78 callgsubr
        </CharString>
        <CharString name="braceleft.lat">
          -78 callgsubr
        </CharString>
        <CharString name="braceright">
          -79 callsubr
        </CharString>
        <CharString name="braceright.lat">
          -79 callsubr
        </CharString>
        <CharString name="bracketleft">
          -11 callgsubr
        </CharString>
        <CharString name="bracketleft.lat">
          -11 callgsubr
        </CharString>
        <CharString name="bracketright">
          -15 callgsubr
        </CharString>
        <CharString name="bracketright.lat">
          -15 callgsubr
        </CharString>
        <CharString name="breve">
          89 570 26 hstem
          120 26 240 26 vstem
          266 -58 callgsubr
          endchar
        </CharString>
        <CharString name="brokenbar">
          31 callsubr
          274 rmoveto
          28 476 -28 hlineto
          -1000 vmoveto
          28 472 -28 hlineto
          endchar
        </CharString>
        <CharString name="bullet">
          -22 callsubr
        </CharString>
        <CharString name="bullet.lat">
          -22 callsubr
        </CharString>
        <CharString name="c">
          3 -12 11 callgsubr
          vstem
          268 -12 rmoveto
          62 50 28 36 40 hvcurveto
          -67 callgsubr
          -158 92 -92 122 hvcurveto
          endchar
        </CharString>
        <CharString name="caron">
          89 572 42 callsubr
          134 264 vstem
          252 -84 callsubr
          endchar
        </CharString>
        <CharString name="ccaron">
          3 -26 callsubr
          82 42 callsubr
          54 32 vstem
          254 -84 callsubr
          132 -730 rmoveto
          62 50 28 36 40 hvcurveto
          -67 callgsubr
          -158 92 -92 122 hvcurveto
          endchar
        </CharString>
        <CharString name="ccedilla">
          3 -216 26 178 11 callgsubr
          214 30 vstem
          260 -66 rmoveto
          24 55 55 4 45 26 36 33 rlinecurve
          -67 callgsubr
          -153 86 -91 116 -6 hvcurveto
          -34 -72 rlineto
          54 -8 24 -14 -30 vvcurveto
          -30 -26 -18 -88 -6 vhcurveto
          6 -26 rlineto
          90 6 48 26 50 vvcurveto
          40 -28 18 -42 10 vhcurveto
          endchar
        </CharString>
        <CharString name="cedilla">
          89 -216 26 hstem
          300 30 vstem
          192 -24 callgsubr
        </CharString>
        <CharString name="cent">
          -81 callgsubr
        </CharString>
        <CharString name="cent.heb">
          97 endchar
        </CharString>
        <CharString name="cent.lat">
          -81 callgsubr
        </CharString>
        <CharString name="chi">
          1 -192 682 hstem
          10 436 vstem
          38 -192 rmoveto
          182 326 rlineto
          4 hlineto
          194 -326 28 12 -208 342 174 316 rlineto
          -34 hlineto
          -154 -286 rlineto
          -4 hlineto
          -174 298 -30 -12 190 -316 -196 -342 rlineto
          endchar
        </CharString>
        <CharString name="circledotted">
          149 -12 63 -36 63 19 64 46 63 48 64 18 63 -37 64 hstemhm
          54 60 -33 60 19 59 47 60 47 58 20 59 -32 60 hintmask 1011101101110100
          295 426 rmoveto
          18 13 12 20 20 -13 12 -18 -16 -13 -12 -20 -20 13 -12 16 hvcurveto
          hintmask 0000010001010000
          -106 -26 rmoveto
          18 12 12 19 22 -13 10 -17 -16 -13 -10 -22 -19 13 -12 16 hvcurveto
          212 -1 rmoveto
          19 11 13 19 21 -13 10 -17 -15 -13 -10 -21 -19 13 -13 15 hvcurveto
          hintmask 0000100010001000
          -291 -81 rmoveto
          19 12 12 38 callsubr
          -12 16 hvcurveto
          370 -1 rmoveto
          19 11 12 20 20 -13 11 -17 -15 -14 -11 -20 -20 14 -12 15 hvcurveto
          hintmask 0001000100000100
          -398 -110 rmoveto
          19 13 12 20 21 -13 10 -19 -15 -13 -10 -21 -20 13 -12 15 hvcurveto
          426 hmoveto
          18 12 12 20 21 -15 10 -15 -17 -13 -10 -21 -20 13 -12 17 hvcurveto
          hintmask 0010000010001000
          -398 -110 rmoveto
          19 12 13 19 21 -13 11 -18 -16 -13 -11 -21 -19 13 -13 16 hvcurveto
          370 hmoveto
          19 11 13 19 21 -13 11 -17 -15 -14 -11 -21 -19 14 -13 15 hvcurveto
          hintmask 0100000001010000
          -291 -82 rmoveto
          18 12 12 22 19 -13 10 -17 -16 -13 -10 -19 -22 13 -12 16 hvcurveto
          212 hmoveto
          19 11 12 22 19 -13 10 -17 -15 -13 -10 -19 -22 13 -12 15 hvcurveto
          hintmask 1000000000100000
          -106 -27 rmoveto
          18 13 11 38 callsubr
          -11 16 hvcurveto
          endchar
        </CharString>
        <CharString name="circumflex">
          89 704 32 hstem
          134 264 vstem
          152 -86 callsubr
          endchar
        </CharString>
        <CharString name="colon">
          -235 -12 78 -57 -21 390 78 hstemhm
          68 72 hintmask 01110000
          104 378 rmoveto
          -80 callgsubr
          -390 vmoveto
          20 callgsubr
          24 hvcurveto
          hintmask 10110000
          26 -18 14 -18 -18 -18 -14 -26 vhcurveto
          hintmask 01110000
          -24 18 -14 18 vhcurveto
          endchar
        </CharString>
        <CharString name="comma">
          -235 -6 72 -50 -21 hstemhm
          120 32 hintmask 00000000
          hintmask 10100000
          108 66 rmoveto
          -18 -18 -12 -24 hvcurveto
          hintmask 01100000
          19 callsubr
          hintmask 10100000
          32 callsubr
        </CharString>
        <CharString name="copyright">
          -91 callsubr
        </CharString>
        <CharString name="copyright.lat">
          -91 callsubr
        </CharString>
        <CharString name="currency">
          29 138 28 326 28 hstem
          60 32 288 32 vstem
          52 118 rmoveto
          65 68 rlineto
          -31 32 42 -17 45 hhcurveto
          44 43 17 31 31 hvcurveto
          66 -68 20 22 -66 68 rlineto
          23 32 15 41 47 vvcurveto
          49 -15 42 -24 32 vhcurveto
          67 69 -20 22 -66 -69 rlineto
          30 -32 -42 17 -44 hhcurveto
          -45 -42 -17 -30 -31 hvcurveto
          -66 69 -20 -22 66 -69 rlineto
          -24 -32 -14 -42 -49 vvcurveto
          -47 14 -41 24 -32 vhcurveto
          -66 -68 rlineto
          204 26 rmoveto
          -78 -66 66 96 96 66 68 78 78 66 -68 -96 -96 -66 -66 -78 hvcurveto
          endchar
        </CharString>
        <CharString name="d">
          97 -12 35 callsubr
          328 30 hintmask 10111100
          -12 callgsubr
          hintmask 01111100
          -47 callsubr
          hintmask 10111100
          11 callsubr
          vhcurveto
          2 28 -78 callsubr
          endchar
        </CharString>
        <CharString name="dagger">
          -35 533 30 hstem
          189 30 vstem
          188 -80 rmoveto
          32 hlineto
          -2 614 -66 callsubr
          rlineto
          endchar
        </CharString>
        <CharString name="dagger.lat">
          -35 533 30 hstem
          189 30 vstem
          188 -80 rmoveto
          32 hlineto
          -2 614 -66 callsubr
          rlineto
          endchar
        </CharString>
        <CharString name="daggerdbl">
          -68 callsubr
        </CharString>
        <CharString name="daggerdbl.lat">
          -68 callsubr
        </CharString>
        <CharString name="degree">
          -54 callgsubr
        </CharString>
        <CharString name="degree.lat">
          -54 callgsubr
        </CharString>
        <CharString name="dieresis">
          89 602 64 hstem
          148 64 108 64 vstem
          180 -98 callgsubr
          endchar
        </CharString>
        <CharString name="divide">
          29 114 70 132 28 130 70 hstem
          204 64 vstem
          236 474 -20 callsubr
          -202 -158 rmoveto
          2 callgsubr
          202 -230 -20 callsubr
          endchar
        </CharString>
        <CharString name="dollar">
          -80 callsubr
        </CharString>
        <CharString name="dollar.heb">
          97 endchar
        </CharString>
        <CharString name="dollar.lat">
          -80 callsubr
        </CharString>
        <CharString name="dotaccent">
          89 600 70 hstemhm
          234 64 hintmask 00000000
          hintmask 11000000
          266 14 callsubr
          endchar
        </CharString>
        <CharString name="dotbelowcomb">
          13 callgsubr
          hstem
          -32 64 vstem
          -190 vmoveto
          -104 callgsubr
          endchar
        </CharString>
        <CharString name="dotlessi">
          -221 21 -21 23 callsubr
          96 hmoveto
          30 478 -30 hlineto
          endchar
        </CharString>
        <CharString name="dotlessj">
          -237 -234 28 5 -21 hstemhm
          96 30 hintmask 10100000
          28 33 callgsubr
          580 -30 -576 vlineto
          -18 callsubr
          hintmask 01100000
          -8 -26 rlineto
          hintmask 10100000
          22 callgsubr
          endchar
        </CharString>
        <CharString name="e">
          35 -39 callgsubr
          40 callgsubr
          440 270 -107 callsubr
          endchar
        </CharString>
        <CharString name="e.sups">
          -69 callsubr
        </CharString>
        <CharString name="eacute">
          35 -39 callgsubr
          234 -20 40 callgsubr
          364 724 rmoveto
          -24 20 -132 -154 18 -16 rlineto
          214 -304 -107 callsubr
          endchar
        </CharString>
        <CharString name="ebreve">
          35 -39 callgsubr
          80 26 hstemhm
          54 32 28 26 240 26 4 30 hintmask 00000000
          hintmask 11111110
          260 -58 callgsubr
          hintmask 11111001
          180 -300 -107 callsubr
          endchar
        </CharString>
        <CharString name="ecircumflex">
          35 -39 callgsubr
          214 32 40 callgsubr
          258 704 rmoveto
          4 hlineto
          112 -130 18 16 -118 146 rlineto
          -28 hlineto
          -118 -146 18 -16 rlineto
          294 -304 -107 callsubr
          endchar
        </CharString>
        <CharString name="edieresis">
          35 -39 callgsubr
          112 64 7 callsubr
          56 64 108 64 32 30 vstem
          174 -98 callgsubr
          94 -332 -107 callsubr
          endchar
        </CharString>
        <CharString name="egrave">
          35 -39 callgsubr
          234 -20 40 callgsubr
          312 590 rmoveto
          -132 154 -24 -20 138 -150 rlineto
          146 -304 -107 callsubr
          endchar
        </CharString>
        <CharString name="eight">
          29 -12 28 608 28 hstemhm
          40 -19 callgsubr
          240 -106 callgsubr
        </CharString>
        <CharString name="eight.heb">
          29 -12 28 608 28 hstemhm
          40 -19 callgsubr
          240 -106 callgsubr
        </CharString>
        <CharString name="eight.lat">
          29 -12 28 608 28 hstemhm
          40 -19 callgsubr
          240 -106 callgsubr
        </CharString>
        <CharString name="eight.pnumheb">
          29 -12 28 608 28 hstemhm
          58 -19 callgsubr
          258 -106 callgsubr
        </CharString>
        <CharString name="eight.pnumlat">
          29 -12 28 608 28 hstemhm
          58 -19 callgsubr
          258 -106 callgsubr
        </CharString>
        <CharString name="ellipsis">
          557 -12 78 hstem
          130 72 262 72 262 72 vstem
          166 -12 rmoveto
          -80 callgsubr
          334 hmoveto
          -80 callgsubr
          334 hmoveto
          -80 callgsubr
          endchar
        </CharString>
        <CharString name="emacron">
          35 -39 callgsubr
          118 28 40 callgsubr
          380 636 rmoveto
          -240 -28 240 hlineto
          60 -338 -107 callsubr
          endchar
        </CharString>
        <CharString name="emdash">
          8 callsubr
        </CharString>
        <CharString name="emdash.lat">
          8 callsubr
        </CharString>
        <CharString name="endash">
          13 callsubr
        </CharString>
        <CharString name="endash.lat">
          13 callsubr
        </CharString>
        <CharString name="eogonek">
          35 -202 28 162 -34 callsubr
          7 callsubr
          190 30 104 30 vstem
          354 18 callsubr
          -24 18 36 44 28 46 86 64 hvcurveto
          -14 26 rlineto
          -26 -36 -42 -18 -54 hhcurveto
          -114 -74 94 128 hvcurveto
          352 hlineto
          2 12 0 10 10 vvcurveto
          142 -70 78 -110 -106 -100 -96 23 callgsubr
          98 -94 120 24 22 2 8 22 vhcurveto
          -28 -24 -36 -46 -50 vvcurveto
          -54 34 -26 44 vhcurveto
          -268 468 rmoveto
          122 10 78 74 86 hhcurveto
          90 60 -64 -132 hvcurveto
          endchar
        </CharString>
        <CharString name="eogonek.sups">
          -69 callsubr
        </CharString>
        <CharString name="equal">
          35 callgsubr
          34 416 rmoveto
          2 callgsubr
          -228 vmoveto
          2 callgsubr
          endchar
        </CharString>
        <CharString name="estimated">
          357 -12 20 308 18 306 20 hstem
          46 130 450 128 vstem
          400 47 callsubr
          102 52 80 66 hvcurveto
          -52 hlineto
          -68 -56 -82 -44 -90 hhcurveto
          -86 -78 38 62 -54 hvcurveto
          -4 6 -4 6 8 vvcurveto
          184 vlineto
          2 2 2 2 vhcurveto
          574 8 hlineto
          186 -158 150 -196 -196 -158 -150 -186 -186 158 -150 196 vhcurveto
          -220 346 rmoveto
          -2 -2 2 4 hvcurveto
          180 vlineto
          8 4 8 4 6 vhcurveto
          60 56 76 38 86 hhcurveto
          82 76 -36 -58 56 hvcurveto
          6 -6 4 -8 -8 vvcurveto
          -184 vlineto
          -4 -2 -2 -4 vhcurveto
          endchar
        </CharString>
        <CharString name="eth">
          89 -12 28 396 28 282 -20 hstem
          62 32 338 32 vstem
          464 678 rmoveto
          -12 22 -142 -74 -42 38 -47 31 -49 27 rlinecurve
          -16 -22 45 -26 44 -28 38 -34 rlinecurve
          -133 -70 12 -22 141 74 58 -57 44 -72 18 -104 rlinecurve
          52 -41 -53 27 -59 hhcurveto
          -126 -82 -92 -130 -144 100 -86 104 116 82 102 160 165 -55 111 -80 81 hvcurveto
          -63 -591 rmoveto
          -94 -78 84 118 102 59 92 115 52 55 -17 -80 54 hvcurveto
          2 -20 1 -22 -23 vvcurveto
          -128 -50 -106 -116 vhcurveto
          endchar
        </CharString>
        <CharString name="exclam">
          -58 callsubr
        </CharString>
        <CharString name="exclam.lat">
          -58 callsubr
        </CharString>
        <CharString name="exclamdown">
          -52 callsubr
        </CharString>
        <CharString name="exclamdown.lat">
          -52 callsubr
        </CharString>
        <CharString name="f">
          -191 21 -21 450 28 228 28 hstem
          100 30 vstem
          208 706 rmoveto
          18 20 -4 -10 20 hvcurveto
          10 26 rlineto
          10 -22 -24 6 -20 hhcurveto
          -68 -42 -44 -94 hvcurveto
          -118 vlineto
          -66 -4 rlineto
          -24 66 -13 callgsubr
          vhcurveto
          endchar
        </CharString>
        <CharString name="fi">
          31 21 -21 450 28 122 70 0 -20 56 28 hstemhm
          100 30 202 64 -48 30 hintmask 11011101
          100 596 rmoveto
          -118 vlineto
          -66 -4 rlineto
          -24 66 -13 callgsubr
          18 20 -4 -10 20 vhcurveto
          10 26 rlineto
          10 -22 -24 6 -20 hhcurveto
          -68 -42 -44 -94 hvcurveto
          hintmask 11011110
          264 74 rmoveto
          -18 -14 -14 -20 hvcurveto
          hintmask 11101110
          -53 callsubr
          -52 callgsubr
          vhcurveto
          hintmask 11011110
          20 -14 14 -18 vhcurveto
          hintmask 11011101
          -16 -670 -15 callsubr
        </CharString>
        <CharString name="five">
          -101 callgsubr
        </CharString>
        <CharString name="five.heb">
          -101 callgsubr
        </CharString>
        <CharString name="five.lat">
          -101 callgsubr
        </CharString>
        <CharString name="five.pnumheb">
          -101 callgsubr
        </CharString>
        <CharString name="five.pnumlat">
          -101 callgsubr
        </CharString>
        <CharString name="fl">
          39 47 callgsubr
          450 28 228 28 -12 -20 hstemhm
          100 30 218 30 hintmask 10110110
          100 596 rmoveto
          -118 vlineto
          -66 -4 rlineto
          -24 66 vlineto
          hintmask 01110110
          -13 callgsubr
          18 20 -4 -10 20 vhcurveto
          10 26 rlineto
          10 -22 -24 6 -20 hhcurveto
          hintmask 10110110
          -68 -42 -44 -94 hvcurveto
          316 -578 rmoveto
          -7 callsubr
          hintmask 10101110
          676 -30 -670 vlineto
          -46 18 -18 30 12 6 2 2 8 vhcurveto
          endchar
        </CharString>
        <CharString name="florin">
          -82 callsubr
        </CharString>
        <CharString name="florin.heb">
          97 endchar
        </CharString>
        <CharString name="florin.lat">
          -82 callsubr
        </CharString>
        <CharString name="four">
          -37 callsubr
          312 30 hintmask 11011000
          440 -95 callgsubr
        </CharString>
        <CharString name="four.heb">
          -37 callsubr
          312 30 hintmask 11011000
          440 -95 callgsubr
        </CharString>
        <CharString name="four.lat">
          -37 callsubr
          312 30 hintmask 11011000
          440 -95 callgsubr
        </CharString>
        <CharString name="four.pnumheb">
          -37 callsubr
          328 30 hintmask 11011000
          456 -95 callgsubr
        </CharString>
        <CharString name="four.pnumlat">
          -37 callsubr
          328 30 hintmask 11011000
          456 -95 callgsubr
        </CharString>
        <CharString name="fraction">
          -79 callgsubr
        </CharString>
        <CharString name="fraction.lat">
          -79 callgsubr
        </CharString>
        <CharString name="g">
          -31 callgsubr
          10 callgsubr
          hintmask 0000000000000000
          hintmask 1111010011000000
          250 -234 -6 callgsubr
          hintmask 1111000111000000
          -76 callsubr
          hintmask 1110101011000000
          -46 callgsubr
          hintmask 1111000111000000
          -26 callgsubr
          hintmask 1111010011000000
          9 callsubr
          hintmask 1110101011000000
          -61 callgsubr
          hintmask 1111010011000000
          -60 callgsubr
          hintmask 1110101011000000
          21 callgsubr
        </CharString>
        <CharString name="gammalatin">
          -21 -234 28 227 -21 hstem
          136 32 88 32 vstem
          410 478 rmoveto
          -32 hlineto
          -114 -300 -16 -46 -18 -38 -16 -42 12 callsubr
          -16 42 -18 38 -16 46 -114 300 rcurveline
          -34 hlineto
          179 -451 rlineto
          -32 -75 -23 -50 -44 vvcurveto
          -54 24 -38 52 52 24 38 54 44 -23 50 -33 74 vhcurveto
          -20 -232 rmoveto
          -32 -12 28 34 38 18 58 24 48 hvcurveto
          4 hlineto
          24 -48 18 -54 -42 vvcurveto
          -34 -12 -28 -32 vhcurveto
          endchar
        </CharString>
        <CharString name="gcaron">
          -31 callgsubr
          82 32 130 -20 10 callgsubr
          hintmask 1111011010110000
          234 -84 callsubr
          hintmask 1111011100110000
          134 -952 -6 callgsubr
          hintmask 1111011001110000
          -76 callsubr
          hintmask 1110111010110000
          -46 callgsubr
          hintmask 1111011001110000
          -26 callgsubr
          hintmask 1111011100110000
          9 callsubr
          hintmask 1110111010110000
          -61 callgsubr
          hintmask 1111011100110000
          -60 callgsubr
          hintmask 1110111010110000
          21 callgsubr
        </CharString>
        <CharString name="gdotaccent">
          -31 callgsubr
          110 70 0 -20 41 callgsubr
          100 64 92 32 34 32 hintmask 0000000000000000
          hintmask 1111010100111000
          248 14 callsubr
          2 -834 -6 callgsubr
          hintmask 1111001001111000
          -76 callsubr
          hintmask 1110101010111000
          -46 callgsubr
          hintmask 1111001001011000
          -26 callgsubr
          hintmask 1111001100011000
          -44 -32 -28 -44 -42 vvcurveto
          hintmask 1111010100111000
          -80 74 -54 122 vhcurveto
          hintmask 1110101010011000
          -61 callgsubr
          hintmask 1111001100011000
          -60 callgsubr
          hintmask 1110101010011000
          21 callgsubr
        </CharString>
        <CharString name="germandbls">
          87 47 callgsubr
          704 28 hstemhm
          96 30 128 32 70 32 80 32 hintmask 10111110
          360 -12 rmoveto
          80 60 58 78 hvcurveto
          170 -214 -38 122 84 102 36 104 vvcurveto
          74 -50 56 -80 -96 -66 -72 -122 vhcurveto
          hintmask 01111110
          -538 30 524 vlineto
          124 52 56 78 66 34 -44 -60 vhcurveto
          -92 -102 -32 -100 -146 214 40 -148 vvcurveto
          hintmask 10111110
          -54 -36 -52 -72 -44 -34 16 32 -38 vhcurveto
          -18 -24 rlineto
          -32 36 46 -20 52 hhcurveto
          endchar
        </CharString>
        <CharString name="glottalstopreversedsupmod">
          -173 868 25 hstem
          16 29 90 28 vstem
          135 410 rmoveto
          28 217 hlineto
          -79 42 -39 39 64 vvcurveto
          57 38 39 67 49 30 -25 -26 21 vhcurveto
          17 19 rlineto
          27 -23 -36 30 -58 hhcurveto
          -76 -58 -43 -79 -77 50 -42 69 -42 hvcurveto
          endchar
        </CharString>
        <CharString name="grave">
          89 724 -20 hstem
          162 156 vstem
          300 -48 callsubr
          endchar
        </CharString>
        <CharString name="gravecomb">
          724 -20 hstem
          -104 156 vstem
          34 -48 callsubr
          endchar
        </CharString>
        <CharString name="gravecomb.cap">
          726 -20 hstem
          -104 140 vstem
          22 -36 callgsubr
          endchar
        </CharString>
        <CharString name="greater">
          29 512 -22 callgsubr
          endchar
        </CharString>
        <CharString name="greaterequal">
          29 0 28 484 -22 callgsubr
          -184 vmoveto
          2 callgsubr
          endchar
        </CharString>
        <CharString name="guillemotleft">
          -56 callgsubr
        </CharString>
        <CharString name="guillemotleft.lat">
          -56 callgsubr
        </CharString>
        <CharString name="guillemotright">
          -59 callsubr
        </CharString>
        <CharString name="guillemotright.lat">
          -59 callsubr
        </CharString>
        <CharString name="guilsinglleft">
          -189 48 callsubr
          42 34 vstem
          180 74 9 callgsubr
        </CharString>
        <CharString name="guilsinglleft.lat">
          -189 48 callsubr
          42 34 vstem
          180 74 9 callgsubr
        </CharString>
        <CharString name="guilsinglright">
          -189 48 callsubr
          178 34 vstem
          74 74 4 callgsubr
        </CharString>
        <CharString name="guilsinglright.lat">
          -189 48 callsubr
          178 34 vstem
          74 74 4 callgsubr
        </CharString>
        <CharString name="h">
          79 21 40 callsubr
          18 callgsubr
          282 30 vstem
          96 hmoveto
          -87 callsubr
          -52 -52 vhcurveto
          322 -30 vlineto
          endchar
        </CharString>
        <CharString name="hbar">
          79 21 -21 430 28 126 28 -28 138 hstemhm
          96 30 282 30 hintmask 11101100
          294 458 rmoveto
          -66 -50 -38 -52 -52 hvcurveto
          216 192 28 -192 vlineto
          hintmask 11011100
          110 -30 vlineto
          hintmask 11101100
          -110 vlineto
          -78 -4 rlineto
          -24 78 -584 30 334 vlineto
          64 62 44 32 60 hhcurveto
          82 34 -52 -106 hvcurveto
          -272 30 276 vlineto
          124 -46 58 -98 vhcurveto
          endchar
        </CharString>
        <CharString name="hungarumlaut">
          89 730 -20 hstem
          196 240 vstem
          216 -2 callgsubr
        </CharString>
        <CharString name="hyphen">
          -57 callsubr
        </CharString>
        <CharString name="i">
          -221 21 -21 600 44 callgsubr
          hintmask 11010000
          112 14 callsubr
          hintmask 10101000
          -16 -600 -15 callsubr
        </CharString>
        <CharString name="iacute">
          -221 21 -21 724 41 callsubr
          78 -70 callgsubr
          36 -590 -15 callsubr
        </CharString>
        <CharString name="icircumflex">
          -221 21 -21 704 32 23 callsubr
          -2 -86 callsubr
          116 -590 -15 callsubr
        </CharString>
        <CharString name="idieresis">
          -221 21 -21 602 64 hstem
          -6 64 38 30 40 64 vstem
          26 -98 callgsubr
          -102 -602 -15 callsubr
        </CharString>
        <CharString name="igrave">
          -221 21 -21 724 41 callsubr
          146 -48 callsubr
          88 -724 -15 callsubr
        </CharString>
        <CharString name="imacron">
          -221 21 -21 608 28 23 callsubr
          -8 -10 callsubr
          104 -636 -15 callsubr
        </CharString>
        <CharString name="infinity">
          313 174 32 -18 28 224 32 -12 28 hstemhm
          42 30 612 30 hintmask 00000000
          hintmask 10011100
          562 174 rmoveto
          92 60 70 88 92 -62 64 -94 -89 -63 -70 -60 -44 hvcurveto
          -4 hlineto
          hintmask 01101100
          46 -36 -54 68 -84 hhcurveto
          -78 -64 -56 -86 -82 64 -60 72 90 56 76 36 34 hvcurveto
          4 hlineto
          hintmask 10011100
          -70 59 55 -56 86 hhcurveto
          2 32 rmoveto
          -66 -52 38 88 -68 hvcurveto
          80 56 54 48 68 hhcurveto
          82 46 -57 -73 -68 -44 -56 -76 hvcurveto
          hintmask 01101100
          -382 10 rmoveto
          -58 -52 46 70 70 50 38 60 60 48 -44 -68 52 hvcurveto
          -60 -40 -54 -52 -66 hhcurveto
          endchar
        </CharString>
        <CharString name="integral">
          -157 -158 28 890 28 hstemhm
          124 30 16 28 hintmask 11010000
          100 -158 rmoveto
          80 18 92 122 hvcurveto
          hintmask 11110000
          134 -44 246 140 vvcurveto
          110 10 74 58 14 12 -2 -2 8 vhcurveto
          6 26 rlineto
          4 -6 -16 2 -16 hhcurveto
          -82 -18 -94 -120 hvcurveto
          hintmask 11010000
          -134 46 -248 -140 vvcurveto
          -110 -10 -72 -60 -14 -12 2 2 -8 vhcurveto
          -6 -26 rlineto
          -4 8 14 -2 18 hhcurveto
          endchar
        </CharString>
        <CharString name="ismall">
          -145 0 28 422 28 hstem
          134 30 vstem
          42 hmoveto
          214 28 -92 422 92 28 -214 -28 92 -422 -92 hlineto
          endchar
        </CharString>
        <CharString name="j">
          -221 -234 28 5 -21 822 44 callgsubr
          hintmask 10011000
          112 670 rmoveto
          -18 -14 -14 -20 hvcurveto
          hintmask 10101000
          -53 callsubr
          -52 callgsubr
          vhcurveto
          hintmask 10011000
          20 -14 14 -18 vhcurveto
          hintmask 10010100
          -16 -768 rmoveto
          -18 callsubr
          hintmask 01010100
          -8 -26 rlineto
          hintmask 10010100
          22 callgsubr
          66 32 40 92 hvcurveto
          580 -30 vlineto
          endchar
        </CharString>
        <CharString name="j.sups">
          -291 258 28 440 -20 96 56 hstemhm
          50 56 -44 28 hintmask 00000000
          hintmask 11110000
          78 802 rmoveto
          16 12 12 16 16 -12 12 -16 -16 -12 -12 -16 -16 12 -12 16 hvcurveto
          hintmask 11001000
          -58 -544 rmoveto
          46 24 28 70 hvcurveto
          370 -28 -374 vlineto
          -40 -8 -26 -36 -14 -6 2 4 -10 vhcurveto
          -8 -26 rlineto
          -6 16 8 -2 16 hhcurveto
          endchar
        </CharString>
        <CharString name="k">
          9 21 -21 722 -20 hstem
          96 30 -65 callsubr
          endchar
        </CharString>
        <CharString name="l">
          -44 callgsubr
        </CharString>
        <CharString name="lefttorightembed">
          858 36 hstem
          -129 88 29 callgsubr
          -76 -36 76 hlineto
          -63 -66 rlineto
          -143 66 rmoveto
          88 36 -88 hlineto
          endchar
        </CharString>
        <CharString name="less">
          29 512 -17 callsubr
          endchar
        </CharString>
        <CharString name="lessequal">
          29 0 28 484 -17 callsubr
          -314 vmoveto
          2 callgsubr
          endchar
        </CharString>
        <CharString name="litre">
          -83 -12 28 690 28 hstem
          106 30 156 32 vstem
          326 60 rmoveto
          -24 -24 -24 -20 -42 hhcurveto
          -54 -46 42 114 hvcurveto
          42 vlineto
          101 103 87 145 130 vvcurveto
          94 -46 48 -60 -62 -50 -52 -144 vhcurveto
          -316 vlineto
          -25 -24 -25 -21 -26 -19 16 -22 rcurveline
          20 14 20 17 20 18 rrcurveto
          -23 vlineto
          -114 58 -60 70 48 36 28 24 24 vhcurveto
          -124 666 rmoveto
          42 32 -30 -86 -116 -68 -125 -88 -96 hvcurveto
          295 vlineto
          106 38 52 44 vhcurveto
          endchar
        </CharString>
        <CharString name="logicalnot">
          29 316 28 hstem
          406 32 vstem
          406 112 rmoveto
          32 232 -404 -28 372 hlineto
          endchar
        </CharString>
        <CharString name="lozenge">
          49 -10 26 628 26 hstem
          60 372 vstem
          226 -10 rmoveto
          40 hlineto
          166 340 -166 340 rlineto
          -40 hlineto
          -166 -340 rlineto
          184 -314 rmoveto
          -70 142 -80 172 80 170 70 144 rlineto
          4 hlineto
          70 -144 80 -170 -80 -172 -70 -142 rlineto
          endchar
        </CharString>
        <CharString name="lslash">
          -213 -12 28 706 41 callsubr
          146 16 rmoveto
          -12 -8 10 20 hvcurveto
          348 vlineto
          72 50 -14 22 -58 -40 rlineto
          296 -30 -314 vlineto
          -82 -54 14 -22 68 44 rlineto
          -324 vlineto
          -46 18 -18 30 12 6 2 2 8 vhcurveto
          -6 26 rlineto
          -2 -10 -4 0 -4 hhcurveto
          endchar
        </CharString>
        <CharString name="m">
          363 21 -32 callgsubr
          18 callgsubr
          266 30 266 30 vstem
          96 hmoveto
          30 366 hlineto
          64 56 50 32 46 hhcurveto
          78 36 -52 -106 hvcurveto
          -304 30 366 vlineto
          64 56 48 32 48 hhcurveto
          78 36 -52 -106 hvcurveto
          -304 30 308 vlineto
          124 -48 58 -94 -54 -54 -38 -62 -56 vhcurveto
          60 -16 -38 40 -78 hhcurveto
          -52 -56 -38 -50 -44 hvcurveto
          -2 hlineto
          -4 76 rlineto
          -26 hlineto
          endchar
        </CharString>
        <CharString name="macron">
          89 608 28 hstem
          146 240 vstem
          146 -10 callsubr
          endchar
        </CharString>
        <CharString name="minus">
          29 316 28 hstem
          34 404 vstem
          34 316 rmoveto
          2 callgsubr
          endchar
        </CharString>
        <CharString name="multiply">
          29 500 -20 hstem
          52 368 vstem
          72 138 rmoveto
          164 172 164 -172 20 22 -164 170 164 170 -20 22 -164 -172 -164 172 -20 -22 164 -170 -164 -170 rlineto
          endchar
        </CharString>
        <CharString name="n">
          83 21 -32 callgsubr
          18 callgsubr
          282 30 vstem
          96 hmoveto
          -87 callsubr
          -50 -50 vhcurveto
          -2 hlineto
          -4 76 rlineto
          -26 hlineto
          endchar
        </CharString>
        <CharString name="newsheqel">
          29 endchar
        </CharString>
        <CharString name="newsheqel.heb">
          97 endchar
        </CharString>
        <CharString name="newsheqel.lat">
          29 endchar
        </CharString>
        <CharString name="nine">
          -18 callgsubr
          44 -5 callgsubr
          214 -102 callsubr
        </CharString>
        <CharString name="nine.heb">
          -18 callgsubr
          44 -5 callgsubr
          214 -102 callsubr
        </CharString>
        <CharString name="nine.lat">
          -18 callgsubr
          44 -5 callgsubr
          214 -102 callsubr
        </CharString>
        <CharString name="nine.pnumheb">
          -18 callgsubr
          52 -5 callgsubr
          222 -102 callsubr
        </CharString>
        <CharString name="nine.pnumlat">
          -18 callgsubr
          52 -5 callgsubr
          222 -102 callsubr
        </CharString>
        <CharString name="notequal">
          35 callgsubr
          68 86 rmoveto
          34 hlineto
          80 130 rlineto
          256 28 -238 hlineto
          106 172 rlineto
          132 28 -114 hlineto
          80 130 rlineto
          -34 hlineto
          -80 -130 rlineto
          -256 -28 238 hlineto
          -106 -172 rlineto
          -132 -28 114 hlineto
          endchar
        </CharString>
        <CharString name="ntilde">
          83 21 -32 callgsubr
          90 26 74 26 hstemhm
          96 30 -8 26 264 30 -26 26 hintmask 00000000
          hintmask 11110101
          355 -92 callsubr
          hintmask 11111010
          -259 -580 rmoveto
          -87 callsubr
          -50 -50 vhcurveto
          -2 hlineto
          -4 76 rlineto
          -26 hlineto
          endchar
        </CharString>
        <CharString name="numbersign">
          -77 callgsubr
        </CharString>
        <CharString name="numbersign.heb">
          97 endchar
        </CharString>
        <CharString name="numbersign.lat">
          -77 callgsubr
        </CharString>
        <CharString name="o">
          89 -12 11 callgsubr
          360 32 vstem
          266 -12 rmoveto
          -102 callgsubr
        </CharString>
        <CharString name="o.sups">
          -51 callgsubr
        </CharString>
        <CharString name="oacute">
          89 -26 callsubr
          234 -20 7 callsubr
          360 32 vstem
          232 -70 callgsubr
          52 -602 rmoveto
          -102 callgsubr
        </CharString>
        <CharString name="obreve">
          89 -26 callsubr
          80 26 7 callsubr
          34 26 240 26 34 32 vstem
          266 -58 callgsubr
          -582 vmoveto
          -102 callgsubr
        </CharString>
        <CharString name="ocircumflex">
          89 -26 callsubr
          214 32 7 callsubr
          360 32 vstem
          152 -86 callsubr
          132 -602 rmoveto
          -102 callgsubr
        </CharString>
        <CharString name="odieresis">
          89 -26 callsubr
          112 64 7 callsubr
          62 64 108 64 62 32 vstem
          180 -98 callgsubr
          -86 -614 rmoveto
          -102 callgsubr
        </CharString>
        <CharString name="oe">
          409 -12 28 222 26 198 28 7 callsubr
          352 30 316 30 vstem
          262 -12 rmoveto
          86 68 50 98 36 hvcurveto
          -90 34 72 -58 88 hhcurveto
          72 40 24 22 36 hvcurveto
          -14 26 rlineto
          -26 -36 -42 -18 -54 hhcurveto
          -102 -80 94 128 2 hvcurveto
          344 hlineto
          2 12 0 10 10 vvcurveto
          142 -70 78 -110 -80 -68 -58 -92 -34 vhcurveto
          100 -34 -78 50 -78 hhcurveto
          -110 -98 -4 callgsubr
          98 -92 110 hvcurveto
          28 vmoveto
          -100 -76 90 132 132 76 92 100 102 74 -92 -132 -132 -74 -90 -102 hvcurveto
          206 248 rmoveto
          116 10 72 82 84 hhcurveto
          90 60 -66 -132 hvcurveto
          endchar
        </CharString>
        <CharString name="ogonek">
          89 endchar
        </CharString>
        <CharString name="ograve">
          89 -26 callsubr
          234 -20 7 callsubr
          360 32 vstem
          300 -48 callsubr
          104 -736 rmoveto
          -102 callgsubr
        </CharString>
        <CharString name="omacron">
          89 -26 callsubr
          118 28 7 callsubr
          360 32 vstem
          146 -10 callsubr
          120 -648 rmoveto
          -102 callgsubr
        </CharString>
        <CharString name="one">
          -72 callsubr
        </CharString>
        <CharString name="one.heb">
          -72 callsubr
        </CharString>
        <CharString name="one.lat">
          -72 callsubr
        </CharString>
        <CharString name="one.pnumheb">
          -29 callgsubr
        </CharString>
        <CharString name="one.pnumlat">
          -29 callgsubr
        </CharString>
        <CharString name="one.sups">
          -64 callgsubr
        </CharString>
        <CharString name="one.supsheb">
          -64 callgsubr
        </CharString>
        <CharString name="one.supslat">
          -64 callgsubr
        </CharString>
        <CharString name="onehalf">
          335 9 -21 684 -20 hstem
          152 402 vstem
          152 -12 -72 callgsubr
          endchar
        </CharString>
        <CharString name="onehalf.heb">
          97 endchar
        </CharString>
        <CharString name="onehalf.lat">
          335 0 26 -17 -21 388 26 198 22 -22 60 12 -20 hstemhm
          158 28 486 30 hintmask 00000000
          hintmask 01100111
          152 -12 -72 callgsubr
          -364 -402 rmoveto
          28 hlineto
          hintmask 10101011
          390 -26 vlineto
          hintmask 10110011
          -22 -18 -26 -12 -36 -8 rrcurveto
          hintmask 10101011
          -22 82 vlineto
          318 -600 -86 callgsubr
        </CharString>
        <CharString name="onequarter">
          315 9 -21 684 -20 hstem
          176 402 vstem
          176 -12 -72 callgsubr
          endchar
        </CharString>
        <CharString name="onequarter.heb">
          97 endchar
        </CharString>
        <CharString name="onequarter.lat">
          315 0 144 -135 -21 130 26 196 50 210 22 -22 60 12 -20 hstemhm
          158 28 436 28 hintmask 0000000000000000
          hintmask 0111001110000000
          546 672 rmoveto
          -370 -684 14 callgsubr
          370 684 rlineto
          -392 -402 rmoveto
          hintmask 0111010110000000
          390 -26 vlineto
          hintmask 0111100110000000
          -22 -18 -26 -12 -36 -8 rrcurveto
          hintmask 0111010110000000
          -22 82 -330 vlineto
          550 -126 rmoveto
          -58 246 -22 hlineto
          -182 -256 rlineto
          -16 176 vlineto
          hintmask 1001010110000000
          -118 28 vlineto
          hintmask 0111010110000000
          6 callsubr
        </CharString>
        <CharString name="ordfeminine">
          -75 callgsubr
        </CharString>
        <CharString name="ordmasculine">
          -51 callgsubr
        </CharString>
        <CharString name="oslash">
          89 -12 28 -20 20 17 callsubr
          hstemhm
          54 32 360 32 hintmask 10111000
          486 480 rmoveto
          -22 18 -56 -67 rlineto
          38 -38 -50 21 -54 hhcurveto
          -114 -98 -92 -160 hvcurveto
          hintmask 01111000
          -71 20 -57 32 -42 vhcurveto
          -60 -72 rlineto
          hintmask 10111000
          22 -18 57 68 rlineto
          -38 38 50 -20 53 hhcurveto
          -9 callgsubr
          71 -19 58 -32 42 hvcurveto
          -341 -171 rmoveto
          132 78 92 102 48 42 -20 -35 32 vhcurveto
          -262 -314 rlineto
          -25 37 -15 50 58 vvcurveto
          360 hmoveto
          -132 -78 -90 -102 -48 -42 20 34 -32 vhcurveto
          262 314 rlineto
          25 -38 15 -50 -58 vvcurveto
          endchar
        </CharString>
        <CharString name="otilde">
          89 -26 callsubr
          90 26 74 26 hstemhm
          54 32 20 26 268 26 20 32 hintmask 00000000
          hintmask 11111111
          343 -92 callsubr
          hintmask 11111001
          -77 -592 rmoveto
          -102 callgsubr
        </CharString>
        <CharString name="p">
          45 callsubr
          -25 callsubr
          -48 hvcurveto
          -2 hlineto
          -4 62 rlineto
          -26 hlineto
          180 -462 -11 callsubr
        </CharString>
        <CharString name="paragraph">
          -41 callsubr
        </CharString>
        <CharString name="paragraph.lat">
          -41 callsubr
        </CharString>
        <CharString name="parenleft">
          -55 callsubr
        </CharString>
        <CharString name="parenleft.lat">
          -55 callsubr
        </CharString>
        <CharString name="parenright">
          -50 callgsubr
        </CharString>
        <CharString name="parenright.lat">
          -50 callgsubr
        </CharString>
        <CharString name="partialdiff">
          45 -12 28 352 28 248 28 hstem
          34 32 354 32 vstem
          258 672 rmoveto
          -56 -50 -24 -38 -34 hvcurveto
          18 -20 rlineto
          34 32 44 20 44 hhcurveto
          92 72 -70 -212 -15 0 -15 -1 -14 hvcurveto
          48 -46 -61 30 -60 hhcurveto
          -142 -76 -92 -128 -118 82 -70 88 150 98 152 222 226 -86 84 -108 hvcurveto
          -52 -656 rmoveto
          -76 -64 66 96 98 52 92 132 51 57 -23 -64 57 hvcurveto
          -150 -19 -72 -115 -118 hhcurveto
          endchar
        </CharString>
        <CharString name="percent">
          355 9 -21 684 -20 hstem
          196 402 vstem
          196 -12 -72 callgsubr
          endchar
        </CharString>
        <CharString name="percent.heb">
          97 endchar
        </CharString>
        <CharString name="percent.lat">
          355 28 callsubr
          162 30 216 30 vstem
          180 258 rmoveto
          -67 callsubr
          16 -270 -72 callgsubr
          -386 -388 rmoveto
          -66 callgsubr
          438 -296 rmoveto
          -67 callsubr
          26 vmoveto
          -66 callgsubr
          endchar
        </CharString>
        <CharString name="period">
          -235 -12 78 -57 -21 hstemhm
          68 72 hintmask 01100000
          104 -12 rmoveto
          20 callgsubr
          24 hvcurveto
          hintmask 10100000
          26 -18 14 -18 -18 -18 -14 -26 vhcurveto
          hintmask 01100000
          -24 18 -14 18 vhcurveto
          endchar
        </CharString>
        <CharString name="periodcentered">
          -235 284 78 hstem
          68 72 vstem
          104 284 rmoveto
          -80 callgsubr
          endchar
        </CharString>
        <CharString name="periodcentered.lat">
          -235 284 78 hstem
          68 72 vstem
          104 284 rmoveto
          -80 callgsubr
          endchar
        </CharString>
        <CharString name="perthousand">
          -79 callgsubr
        </CharString>
        <CharString name="perthousand.heb">
          97 endchar
        </CharString>
        <CharString name="perthousand.lat">
          707 28 callsubr
          158 30 216 30 80 30 216 30 vstem
          180 258 rmoveto
          -67 callsubr
          12 -270 -72 callgsubr
          -382 -388 rmoveto
          -66 callgsubr
          434 -296 rmoveto
          -67 callsubr
          356 hmoveto
          -67 callsubr
          -356 26 rmoveto
          -66 callgsubr
          356 hmoveto
          -66 callgsubr
          endchar
        </CharString>
        <CharString name="pi">
          103 -12 28 -20 20 5 -21 448 30 hstemhm
          142 28 213 28 hintmask 10011100
          455 -12 rmoveto
          21 13 4 4 15 hvcurveto
          hintmask 00111100
          -6 26 rlineto
          hintmask 10011100
          -4 -21 -12 -2 -8 hhcurveto
          -32 -14 16 34 66 2 187 6 129 hvcurveto
          101 30 -428 hlineto
          -66 -4 rlineto
          -26 116 vlineto
          hintmask 00111100
          -148 -14 -160 -20 -140 vhcurveto
          hintmask 01011100
          32 -2 rlineto
          14 140 16 160 150 vvcurveto
          219 hlineto
          hintmask 10011100
          -2 -125 -4 -185 -66 vvcurveto
          -60 23 -24 49 vhcurveto
          endchar
        </CharString>
        <CharString name="plus">
          29 316 28 hstem
          220 32 vstem
          220 112 rmoveto
          32 204 186 28 -186 204 -32 -204 -186 -28 186 hlineto
          endchar
        </CharString>
        <CharString name="plusminus">
          29 0 28 284 28 hstem
          220 32 vstem
          220 102 rmoveto
          32 210 186 28 -186 208 -32 -208 -186 -28 186 hlineto
          -186 -312 rmoveto
          2 callgsubr
          endchar
        </CharString>
        <CharString name="popdirectionformat">
          765 229 hstem
          -19 36 vstem
          -19 765 rmoveto
          36 160 hlineto
          62 -64 25 26 -104 107 -104 -107 25 -26 60 63 rlineto
          endchar
        </CharString>
        <CharString name="product">
          201 612 28 hstem
          96 32 386 34 vstem
          96 -120 rmoveto
          32 732 386 -732 34 760 -452 hlineto
          endchar
        </CharString>
        <CharString name="q">
          45 callsubr
          hstem
          54 32 328 30 vstem
          414 -222 rmoveto
          30 700 -26 hlineto
          -4 -44 rlineto
          -2 hlineto
          34 25 callgsubr
          66 54 36 42 44 hvcurveto
          -2 -98 rlineto
          -160 48 -78 callsubr
          endchar
        </CharString>
        <CharString name="question">
          -74 callsubr
        </CharString>
        <CharString name="question.lat">
          -74 callsubr
        </CharString>
        <CharString name="questiondown">
          -70 callsubr
        </CharString>
        <CharString name="questiondown.lat">
          -70 callsubr
        </CharString>
        <CharString name="quotedbl">
          -38 callgsubr
        </CharString>
        <CharString name="quotedbl.lat">
          -38 callgsubr
        </CharString>
        <CharString name="quotedblbase">
          -107 14 66 hstem
          120 30 98 30 vstem
          112 80 -97 callgsubr
        </CharString>
        <CharString name="quotedblbase.lat">
          -107 14 66 hstem
          120 30 98 30 vstem
          112 80 -97 callgsubr
        </CharString>
        <CharString name="quotedblleft">
          -107 500 66 hstem
          58 30 98 30 vstem
          58 558 rmoveto
          -83 callgsubr
          -23 callgsubr
          222 130 rmoveto
          -23 callgsubr
          -83 callgsubr
          endchar
        </CharString>
        <CharString name="quotedblleft.lat">
          -107 500 66 hstem
          58 30 98 30 vstem
          58 558 rmoveto
          -83 callgsubr
          -23 callgsubr
          222 130 rmoveto
          -23 callgsubr
          -83 callgsubr
          endchar
        </CharString>
        <CharString name="quotedblright">
          -107 46 callgsubr
          98 30 vstem
          112 700 -97 callgsubr
        </CharString>
        <CharString name="quotedblright.lat">
          -107 46 callgsubr
          98 30 vstem
          112 700 -97 callgsubr
        </CharString>
        <CharString name="quoteleft">
          -235 500 66 hstem
          58 30 vstem
          152 688 rmoveto
          -23 callgsubr
          -83 callgsubr
          endchar
        </CharString>
        <CharString name="quoteleft.lat">
          -235 500 66 hstem
          58 30 vstem
          152 688 rmoveto
          -23 callgsubr
          -83 callgsubr
          endchar
        </CharString>
        <CharString name="quoteright">
          -235 46 callgsubr
          vstem
          112 700 -77 callsubr
          endchar
        </CharString>
        <CharString name="quoteright.lat">
          -235 46 callgsubr
          vstem
          112 700 -77 callsubr
          endchar
        </CharString>
        <CharString name="quotesinglbase">
          -235 14 66 hstem
          120 30 vstem
          112 80 -77 callsubr
          endchar
        </CharString>
        <CharString name="quotesinglbase.lat">
          -235 14 66 hstem
          120 30 vstem
          112 80 -77 callsubr
          endchar
        </CharString>
        <CharString name="quotesingle">
          -235 494 200 hstem
          84 38 vstem
          90 494 32 callgsubr
        </CharString>
        <CharString name="quotesingle.lat">
          -235 494 200 hstem
          84 38 vstem
          90 494 32 callgsubr
        </CharString>
        <CharString name="r">
          -137 21 -21 460 30 23 callsubr
          96 hmoveto
          30 332 hlineto
          94 38 52 34 44 hhcurveto
          18 8 -2 -6 16 hvcurveto
          8 28 rlineto
          8 -16 -14 2 -16 hhcurveto
          -58 -46 -44 -58 -32 hvcurveto
          -2 hlineto
          -4 90 rlineto
          -26 hlineto
          endchar
        </CharString>
        <CharString name="radical">
          89 -108 48 hstem
          52 482 vstem
          284 -108 rmoveto
          32 hlineto
          218 928 rlineto
          -30 hlineto
          -194 -832 -4 -16 -2 -16 -4 -16 12 callsubr
          -4 16 -4 16 -6 16 -130 388 rcurveline
          -100 -48 14 -26 68 32 rlineto
          endchar
        </CharString>
        <CharString name="registered">
          -85 callgsubr
        </CharString>
        <CharString name="registered.lat">
          -85 callgsubr
        </CharString>
        <CharString name="righttoleftembed">
          858 36 hstem
          41 88 44 callsubr
          75 36 -76 hlineto
          63 64 -25 26 -105 -109 rlineto
          185 -17 rmoveto
          88 36 -88 hlineto
          endchar
        </CharString>
        <CharString name="ring">
          89 546 22 144 22 hstem
          174 24 136 24 vstem
          266 546 rmoveto
          -61 callsubr
          endchar
        </CharString>
        <CharString name="ringhalfleftmod">
          -285 endchar
        </CharString>
        <CharString name="ringhalfrightmod">
          -285 endchar
        </CharString>
        <CharString name="rsmall">
          23 21 -21 216 28 206 28 18 callgsubr
          251 32 vstem
          420 hmoveto
          -144 217 rlineto
          76 8 57 41 84 vvcurveto
          94 -69 34 -98 vhcurveto
          -146 -478 30 216 119 hlineto
          141 -216 rlineto
          -260 244 rmoveto
          206 106 vlineto
          89 56 -29 -71 -71 -56 -35 -89 hvcurveto
          endchar
        </CharString>
        <CharString name="rsmallinverted">
          23 0 28 210 28 hstem
          57 32 251 30 vstem
          340 478 rmoveto
          -212 -119 vlineto
          -141 212 rlineto
          -34 hlineto
          143 -213 rlineto
          -75 -8 -57 -43 -84 vvcurveto
          -94 69 -36 98 vhcurveto
          146 478 hlineto
          -30 -450 rmoveto
          -106 hlineto
          -89 -56 31 71 71 56 37 89 hvcurveto
          106 hlineto
          endchar
        </CharString>
        <CharString name="s">
          -43 -26 callsubr
          hstem
          56 32 244 32 vstem
          208 -12 -97 callsubr
          endchar
        </CharString>
        <CharString name="sacute">
          -43 -26 callsubr
          234 -20 hstem
          56 32 244 32 vstem
          172 -70 callgsubr
          54 -602 -97 callsubr
          endchar
        </CharString>
        <CharString name="scaron">
          -43 -26 callsubr
          82 42 callsubr
          56 32 244 32 vstem
          192 -84 callsubr
          134 -730 -97 callsubr
          endchar
        </CharString>
        <CharString name="section">
          -90 callsubr
        </CharString>
        <CharString name="section.lat">
          -90 callsubr
        </CharString>
        <CharString name="semicolon">
          -235 -6 72 -50 -21 383 78 hstemhm
          68 72 -20 32 hintmask 00000000
          hintmask 01110000
          104 378 rmoveto
          -80 callgsubr
          hintmask 10101000
          4 -312 rmoveto
          -18 -18 -12 -24 hvcurveto
          hintmask 01101000
          19 callsubr
          hintmask 10101000
          32 callsubr
        </CharString>
        <CharString name="seven">
          -73 callsubr
        </CharString>
        <CharString name="seven.heb">
          -73 callsubr
        </CharString>
        <CharString name="seven.lat">
          -73 callsubr
        </CharString>
        <CharString name="seven.pnumheb">
          -43 callgsubr
        </CharString>
        <CharString name="seven.pnumlat">
          -43 callgsubr
        </CharString>
        <CharString name="six">
          -19 callsubr
          54 -5 callgsubr
          252 -103 callsubr
        </CharString>
        <CharString name="six.heb">
          -19 callsubr
          54 -5 callgsubr
          252 -103 callsubr
        </CharString>
        <CharString name="six.lat">
          -19 callsubr
          54 -5 callgsubr
          252 -103 callsubr
        </CharString>
        <CharString name="six.pnumheb">
          -19 callsubr
          64 -5 callgsubr
          262 -103 callsubr
        </CharString>
        <CharString name="six.pnumlat">
          -19 callsubr
          64 -5 callgsubr
          262 -103 callsubr
        </CharString>
        <CharString name="slash">
          4 callsubr
        </CharString>
        <CharString name="slash.lat">
          4 callsubr
        </CharString>
        <CharString name="space">
          -243 endchar
        </CharString>
        <CharString name="sterling">
          -83 callsubr
        </CharString>
        <CharString name="sterling.heb">
          97 endchar
        </CharString>
        <CharString name="sterling.lat">
          -83 callsubr
        </CharString>
        <CharString name="summation">
          37 -120 28 704 28 hstemhm
          18 42 -30 42 hintmask 11100000
          18 -120 rmoveto
          464 28 -422 4 hlineto
          260 350 rlineto
          hintmask 11010000
          -248 346 rlineto
          4 378 28 -420 -26 vlineto
          252 -354 rlineto
          hintmask 11100000
          -264 -354 rlineto
          endchar
        </CharString>
        <CharString name="t">
          -141 -12 28 434 28 hstem
          106 30 vstem
          -47 callgsubr
          endchar
        </CharString>
        <CharString name="theta">
          57 -12 28 690 28 hstem
          68 32 300 32 vstem
          250 -12 rmoveto
          116 66 110 266 234 -66 136 -116 -116 -66 -136 -234 -266 66 -110 116 hvcurveto
          28 vmoveto
          -88 -62 98 250 222 62 120 88 88 62 -120 -222 -250 -62 -98 -88 hvcurveto
          -164 336 rmoveto
          28 328 -28 vlineto
          endchar
        </CharString>
        <CharString name="thorn">
          45 callsubr
          232 -20 -25 callsubr
          -50 hvcurveto
          306 -30 vlineto
          180 -706 -11 callsubr
        </CharString>
        <CharString name="three">
          -106 callsubr
        </CharString>
        <CharString name="three.heb">
          -106 callsubr
        </CharString>
        <CharString name="three.lat">
          -106 callsubr
        </CharString>
        <CharString name="three.pnumheb">
          -106 callsubr
        </CharString>
        <CharString name="three.pnumlat">
          -106 callsubr
        </CharString>
        <CharString name="three.sups">
          -94 callgsubr
        </CharString>
        <CharString name="three.supsheb">
          -94 callgsubr
        </CharString>
        <CharString name="three.supslat">
          -94 callgsubr
        </CharString>
        <CharString name="threequarters">
          335 9 -21 684 -20 hstem
          226 402 vstem
          226 -12 -72 callgsubr
          endchar
        </CharString>
        <CharString name="threequarters.heb">
          97 endchar
        </CharString>
        <CharString name="threequarters.lat">
          335 0 144 -135 -21 130 26 114 26 56 50 66 24 166 26 hstemhm
          258 30 -14 30 338 28 hintmask 0111011011000000
          304 372 rmoveto
          56 -46 34 -48 8 vhcurveto
          hintmask 0111011101000000
          44 16 34 34 50 vvcurveto
          64 -52 38 -64 -48 -40 -28 -34 -26 vhcurveto
          20 -18 rlineto
          32 26 34 22 32 hhcurveto
          54 34 -32 -46 -46 -46 -42 -82 hvcurveto
          -24 vlineto
          hintmask 0111011011000000
          88 56 -30 -54 -56 -44 -32 -52 -46 -42 28 38 -24 hvcurveto
          -24 -18 rlineto
          -38 26 48 -36 60 hhcurveto
          72 56 42 72 hvcurveto
          292 300 rmoveto
          -370 -684 14 callgsubr
          370 684 rlineto
          100 -528 rmoveto
          -58 hlineto
          hintmask 0111111011000000
          246 -22 vlineto
          -182 -256 rlineto
          -16 176 vlineto
          hintmask 1001011011000000
          -118 28 vlineto
          hintmask 0111111011000000
          6 callsubr
        </CharString>
        <CharString name="tilde">
          89 580 26 74 26 hstem
          106 26 268 26 vstem
          343 -92 callsubr
          endchar
        </CharString>
        <CharString name="tildecomb">
          580 26 74 26 hstem
          -160 26 268 26 vstem
          77 -92 callsubr
          endchar
        </CharString>
        <CharString name="tildecomb.cap">
          722 37 callsubr
          -160 24 272 24 hintmask 10111000
          78 722 rmoveto
          -49 callsubr
          hintmask 01111000
          -3 callgsubr
          hintmask 10111000
          58 20 -82 78 hhcurveto
          endchar
        </CharString>
        <CharString name="trademark">
          -76 callgsubr
        </CharString>
        <CharString name="trademark.lat">
          -76 callgsubr
        </CharString>
        <CharString name="two">
          29 -91 callgsubr
          -76 -56 -42 -52 -46 -74 callgsubr
        </CharString>
        <CharString name="two.heb">
          29 -91 callgsubr
          -76 -56 -42 -52 -46 -74 callgsubr
        </CharString>
        <CharString name="two.lat">
          29 -91 callgsubr
          -76 -56 -42 -52 -46 -74 callgsubr
        </CharString>
        <CharString name="two.pnumheb">
          37 -91 callgsubr
          -74 -54 -38 -56 -50 -74 callgsubr
        </CharString>
        <CharString name="two.pnumlat">
          37 -91 callgsubr
          -74 -54 -38 -56 -50 -74 callgsubr
        </CharString>
        <CharString name="two.sups">
          -83 410 26 350 26 hstem
          254 30 vstem
          58 410 -86 callgsubr
        </CharString>
        <CharString name="two.supsheb">
          -83 410 26 350 26 hstem
          254 30 vstem
          58 410 -86 callgsubr
        </CharString>
        <CharString name="two.supslat">
          -83 410 26 350 26 hstem
          254 30 vstem
          58 410 -86 callgsubr
        </CharString>
        <CharString name="u">
          27 callgsubr
          hstemhm
          88 30 280 30 hintmask 10110000
          232 -12 rmoveto
          66 50 38 56 48 hvcurveto
          2 hlineto
          hintmask 01110000
          4 -82 rlineto
          26 478 -30 -358 hlineto
          hintmask 10110000
          -72 -60 -44 -32 -60 hhcurveto
          -82 -34 52 106 hvcurveto
          304 -30 -308 vlineto
          -124 46 -58 98 vhcurveto
          endchar
        </CharString>
        <CharString name="uacute">
          27 callgsubr
          724 -20 16 callgsubr
          228 -70 callgsubr
          22 -602 -88 callsubr
        </CharString>
        <CharString name="ucircumflex">
          27 callgsubr
          704 32 16 callgsubr
          148 -86 callsubr
          102 -602 -88 callsubr
        </CharString>
        <CharString name="udieresis">
          27 callgsubr
          602 64 hstemhm
          88 30 26 64 108 64 18 30 hintmask 00000000
          hintmask 10111110
          176 -98 callgsubr
          hintmask 10110010
          -116 -614 rmoveto
          66 50 38 56 48 hvcurveto
          2 hlineto
          hintmask 01110010
          4 -82 rlineto
          26 478 -30 -358 hlineto
          hintmask 10110010
          -72 -60 -44 -32 -60 hhcurveto
          -82 -34 52 106 hvcurveto
          304 -30 -308 vlineto
          -124 46 -58 98 vhcurveto
          endchar
        </CharString>
        <CharString name="ugrave">
          27 callgsubr
          724 -20 16 callgsubr
          296 -48 callsubr
          74 -736 -88 callsubr
        </CharString>
        <CharString name="umacron">
          27 callgsubr
          608 28 16 callgsubr
          142 -10 callsubr
          90 -648 -88 callsubr
        </CharString>
        <CharString name="underscore">
          57 -114 32 hstem
          12 476 vstem
          12 -114 rmoveto
          476 32 -476 hlineto
          endchar
        </CharString>
        <CharString name="uni00A0">
          -245 endchar
        </CharString>
        <CharString name="uni00AD">
          -57 callsubr
        </CharString>
        <CharString name="uni018F">
          201 -12 28 288 28 312 28 hstem
          64 32 460 32 vstem
          324 672 rmoveto
          -80 -68 -32 -42 -42 hvcurveto
          18 -22 rlineto
          42 42 64 26 68 hhcurveto
          150 80 -116 -196 hvcurveto
          -492 -6 hlineto
          -196 92 -142 164 164 104 128 216 216 -94 124 -170 vhcurveto
          -4 -656 rmoveto
          -130 -90 114 174 -4 hvcurveto
          459 hlineto
          -179 -8 -86 -109 -141 hhcurveto
          endchar
        </CharString>
        <CharString name="uni0250">
          51 -26 callsubr
          hstem
          88 30 282 32 vstem
          264 -12 rmoveto
          73 63 40 22 28 hvcurveto
          -16 24 rlineto
          -24 -28 -54 -34 -64 hhcurveto
          -124 -26 92 72 2 hvcurveto
          216 25 98 53 113 vvcurveto
          84 -59 35 -69 -64 -67 -34 -52 -53 vhcurveto
          -2 hlineto
          -4 74 rlineto
          -26 -300 hlineto
          -101 40 -89 136 vhcurveto
          -146 218 rmoveto
          162 vlineto
          68 68 60 26 56 hhcurveto
          53 45 -25 -67 -87 -72 -51 -210 -26 hvcurveto
          endchar
        </CharString>
        <CharString name="uni0254">
          3 -26 callsubr
          hstem
          360 32 vstem
          178 -12 rmoveto
          120 94 92 158 162 -96 90 -106 -76 -40 -28 -32 -36 hvcurveto
          20 -22 rlineto
          32 34 38 22 58 hhcurveto
          96 76 -90 -134 -132 -74 -90 -108 -54 -46 26 32 -34 hvcurveto
          -18 -22 rlineto
          -36 40 50 -28 62 hhcurveto
          endchar
        </CharString>
        <CharString name="uni0259">
          35 -12 28 208 28 210 28 hstem
          38 30 324 32 vstem
          228 47 callsubr
          82 96 156 160 -84 90 -116 -72 -46 -24 -26 -38 hvcurveto
          14 -26 rlineto
          28 39 43 20 58 hhcurveto
          108 62 -92 -118 hvcurveto
          -352 hlineto
          -2 -12 0 -12 -10 vvcurveto
          -152 82 -78 108 vhcurveto
          28 vmoveto
          -92 -68 64 144 hvcurveto
          324 hlineto
          -128 -9 -59 -80 -96 hhcurveto
          endchar
        </CharString>
        <CharString name="uni025B">
          -21 -39 callgsubr
          hstemhm
          54 32 -4 32 hintmask 11110000
          234 -12 rmoveto
          68 46 18 41 52 hvcurveto
          -17 24 rlineto
          -39 -49 -40 -16 -56 hhcurveto
          -90 -62 44 69 68 60 41 102 hvcurveto
          58 28 -44 hlineto
          hintmask 11101000
          -103 -45 44 56 66 57 30 65 48 37 -18 -28 39 hvcurveto
          16 23 rlineto
          31 -37 -43 20 -58 hhcurveto
          -84 -72 -42 -80 -50 32 -42 50 -20 hvcurveto
          -4 vlineto
          hintmask 11110000
          -52 -14 -58 -38 -72 vvcurveto
          -82 72 -58 108 vhcurveto
          endchar
        </CharString>
        <CharString name="uni026B">
          -44 callgsubr
        </CharString>
        <CharString name="uni0283">
          -221 -234 28 5 -21 930 28 -12 -20 hstemhm
          96 30 hintmask 10011000
          28 33 callgsubr
          702 vlineto
          hintmask 10101000
          62 12 46 64 16 16 -6 -4 10 vhcurveto
          hintmask 10011000
          8 26 rlineto
          hintmask 10101000
          6 -12 -19 6 -17 hhcurveto
          -73 -35 -40 -92 hvcurveto
          -702 vlineto
          -18 callsubr
          hintmask 01011000
          -8 -26 rlineto
          hintmask 10011000
          22 callgsubr
          endchar
        </CharString>
        <CharString name="uni028E">
          -19 21 -21 704 20 -20 30 hstemhm
          12 404 hintmask 10110000
          12 hmoveto
          32 hlineto
          108 314 14 40 16 52 16 42 rlinecurve
          4 hlineto
          18 -42 20 -52 16 -40 122 -314 rcurveline
          34 hlineto
          -198 490 26 78 rlineto
          78 26 42 58 60 hhcurveto
          14 16 -4 -4 10 hvcurveto
          hintmask 11010000
          8 28 rlineto
          hintmask 10110000
          6 -12 -18 4 -16 hhcurveto
          -82 -48 -80 -74 -24 hvcurveto
          endchar
        </CharString>
        <CharString name="uni0292">
          -47 -234 28 346 39 callgsubr
          hstem
          348 32 vstem
          190 -234 rmoveto
          95 95 76 136 128 -94 88 -146 -32 hvcurveto
          220 300 rlineto
          16 -312 -28 272 vlineto
          -27 callsubr
          endchar
        </CharString>
        <CharString name="uni0294">
          -51 21 -21 648 -20 78 28 hstem
          160 30 148 32 vstem
          160 hmoveto
          30 308 hlineto
          104 62 76 64 118 vvcurveto
          118 -80 64 -106 -92 -54 -46 -40 -36 vhcurveto
          20 -22 rlineto
          40 34 48 40 82 hhcurveto
          98 54 -62 -90 -100 -60 -62 -118 -62 hvcurveto
          endchar
        </CharString>
        <CharString name="uni0295">
          -51 21 -21 648 -20 78 28 hstem
          22 32 148 30 vstem
          202 hmoveto
          30 330 hlineto
          -118 62 -60 62 100 vvcurveto
          90 58 62 104 77 45 -40 -40 32 vhcurveto
          20 22 rlineto
          40 -34 -51 46 -87 hhcurveto
          -112 -84 -64 -118 -118 76 -64 104 -62 hvcurveto
          endchar
        </CharString>
        <CharString name="uni02A4">
          401 -234 28 194 28 5 -21 140 39 callgsubr
          -16 28 232 -20 hstemhm
          54 32 328 30 352 32 hintmask 1101101111000000
          588 162 rmoveto
          220 300 rlineto
          16 -286 vlineto
          -78 244 -30 hlineto
          hintmask 1101011111000000
          -202 vlineto
          2 -90 rlineto
          38 -50 27 callsubr
          66 54 36 40 40 hvcurveto
          2 hlineto
          hintmask 1011101111000000
          4 -64 rlineto
          26 450 52 hlineto
          272 hlineto
          -27 callsubr
          95 95 76 136 hvcurveto
          hintmask 1101101111000000
          128 -94 88 -146 -32 vhcurveto
          -174 -62 rmoveto
          -54 -54 -50 -30 -56 hhcurveto
          -108 -60 90 132 hvcurveto
          hintmask 1101011111000000
          124 78 100 102 50 44 -18 -48 54 vhcurveto
          endchar
        </CharString>
        <CharString name="uni02A6">
          -90 callgsubr
        </CharString>
        <CharString name="uni02A7">
          -90 callgsubr
        </CharString>
        <CharString name="uni02B9">
          -235 endchar
        </CharString>
        <CharString name="uni02C8">
          -355 528 188 hstem
          31 26 vstem
          34 528 rmoveto
          20 hlineto
          6 188 -28 callsubr
          endchar
        </CharString>
        <CharString name="uni02D0">
          -235 0 96 252 94 hstem
          56 96 vstem
          100 348 rmoveto
          8 hlineto
          44 94 rlineto
          -96 hlineto
          -442 vmoveto
          96 hlineto
          -44 96 rlineto
          -8 hlineto
          endchar
        </CharString>
        <CharString name="uni0302">
          704 32 hstem
          -132 264 vstem
          -114 -86 callsubr
          endchar
        </CharString>
        <CharString name="uni0302.cap">
          726 -20 104 30 hstem
          -130 260 vstem
          -116 710 rmoveto
          114 100 rlineto
          4 hlineto
          -62 callsubr
          rlineto
          endchar
        </CharString>
        <CharString name="uni0304">
          608 30 callsubr
          -10 callsubr
          endchar
        </CharString>
        <CharString name="uni0304.cap">
          746 30 callsubr
          -10 callgsubr
          endchar
        </CharString>
        <CharString name="uni0306">
          570 26 hstem
          -146 26 240 26 vstem
          570 -16 callsubr
        </CharString>
        <CharString name="uni0306.cap">
          712 26 hstem
          -132 26 212 26 vstem
          712 vmoveto
          -71 callgsubr
          endchar
        </CharString>
        <CharString name="uni0307">
          600 70 hstemhm
          -32 64 hintmask 00000000
          hintmask 11000000
          600 vmoveto
          -104 callgsubr
          endchar
        </CharString>
        <CharString name="uni0307.cap">
          724 70 hstem
          -34 68 vstem
          724 vmoveto
          26 callgsubr
          endchar
        </CharString>
        <CharString name="uni0308">
          602 64 hstem
          -118 64 108 64 vstem
          -86 -98 callgsubr
          endchar
        </CharString>
        <CharString name="uni0308.cap">
          728 64 hstem
          -128 64 128 64 vstem
          -96 -98 callsubr
          endchar
        </CharString>
        <CharString name="uni030A">
          546 22 144 22 hstem
          -92 24 136 24 vstem
          546 vmoveto
          -61 callsubr
          endchar
        </CharString>
        <CharString name="uni030A.cap">
          700 22 124 22 hstem
          -84 24 118 26 vstem
          700 vmoveto
          24 callsubr
          22 vmoveto
          -33 -27 21 41 39 27 23 33 31 27 -23 -39 -41 -27 -21 -31 hvcurveto
          endchar
        </CharString>
        <CharString name="uni030B">
          730 -20 hstem
          -70 240 vstem
          -50 -2 callgsubr
        </CharString>
        <CharString name="uni030B.cap">
          710 156 hstem
          -76 250 vstem
          -56 710 rmoveto
          92 140 -26 16 -86 -146 rlineto
          158 -10 rmoveto
          92 140 -26 16 -86 -146 rlineto
          endchar
        </CharString>
        <CharString name="uni030C">
          572 42 callsubr
          -132 264 vstem
          -14 -84 callsubr
          endchar
        </CharString>
        <CharString name="uni030C.cap">
          710 30 hstem
          -130 260 vstem
          -14 -71 callsubr
          endchar
        </CharString>
        <CharString name="uni031E">
          -136 28 hstem
          -14 28 vstem
          -14 -242 rmoveto
          28 106 72 28 -172 -28 72 hlineto
          endchar
        </CharString>
        <CharString name="uni0327">
          -216 26 hstem
          34 30 vstem
          -74 -24 callgsubr
        </CharString>
        <CharString name="uni032E">
          -230 26 hstem
          -146 26 240 26 vstem
          -230 -16 callsubr
        </CharString>
        <CharString name="uni0331">
          -156 30 callsubr
          -156 -68 callgsubr
        </CharString>
        <CharString name="uni0361">
          684 28 hstem
          -452 904 vstem
          -440 562 rmoveto
          80 126 154 42 160 hhcurveto
          160 154 -42 -80 126 hvcurveto
          12 20 rlineto
          82 -132 -144 48 -176 hhcurveto
          -176 -144 -48 -82 -132 hvcurveto
          endchar
        </CharString>
        <CharString name="uni0394.math">
          103 endchar
        </CharString>
        <CharString name="uni03A9.math">
          209 endchar
        </CharString>
        <CharString name="uni03BC.math">
          93 endchar
        </CharString>
        <CharString name="uni05B0">
          -226 59 32 58 43 callgsubr
          -77 rmoveto
          -94 callsubr
          -90 vmoveto
          -57 callgsubr
          endchar
        </CharString>
        <CharString name="uni05B1">
          -226 59 32 58 hstemhm
          36 55 -4 55 -2 55 49 55 hintmask 11101100
          64 -77 rmoveto
          -94 callsubr
          104 hmoveto
          -94 callsubr
          104 hmoveto
          -94 callsubr
          hintmask 11010100
          -157 -90 rmoveto
          -57 callgsubr
          157 hmoveto
          -57 callgsubr
          endchar
        </CharString>
        <CharString name="uni05B2">
          -226 59 32 58 -41 33 hstemhm
          36 154 43 55 hintmask 00000000
          hintmask 11011000
          261 -77 rmoveto
          -94 callsubr
          hintmask 10111000
          -71 -8 rmoveto
          -154 -33 154 hlineto
          71 -49 rmoveto
          -57 callgsubr
          endchar
        </CharString>
        <CharString name="uni05B3">
          -226 59 32 58 -41 33 hstemhm
          99 27 107 55 hintmask 00000000
          hintmask 11011000
          261 -77 rmoveto
          -94 callsubr
          hintmask 10111000
          -71 -8 rmoveto
          -154 -33 67 hlineto
          -8 -100 rlineto
          35 hlineto
          -8 100 rlineto
          68 hlineto
          71 -49 rmoveto
          -57 callgsubr
          endchar
        </CharString>
        <CharString name="uni05B4">
          -135 58 43 callgsubr
          -77 rmoveto
          -94 callsubr
          endchar
        </CharString>
        <CharString name="uni05B5">
          -135 58 hstem
          36 55 52 55 vstem
          64 -77 rmoveto
          -94 callsubr
          107 hmoveto
          -94 callsubr
          endchar
        </CharString>
        <CharString name="uni05B6">
          -216 58 23 58 hstemhm
          36 55 -2 55 -1 55 hintmask 01101000
          64 -77 rmoveto
          -94 callsubr
          107 hmoveto
          -94 callsubr
          hintmask 11010000
          -54 -81 rmoveto
          -16 -12 -14 -14 -16 12 -14 16 16 11 14 16 14 -11 14 -16 hvcurveto
          endchar
        </CharString>
        <CharString name="uni05B7">
          -102 33 hstem
          36 154 vstem
          190 -69 rmoveto
          -154 -33 154 hlineto
          endchar
        </CharString>
        <CharString name="uni05B8">
          -102 33 hstem
          99 27 vstem
          190 -69 rmoveto
          -154 -33 67 hlineto
          -8 -100 rlineto
          35 hlineto
          -8 100 rlineto
          68 hlineto
          endchar
        </CharString>
        <CharString name="uni05B9">
          507 21 callsubr
          566 -101 callsubr
        </CharString>
        <CharString name="uni05BA">
          507 21 callsubr
          507 rmoveto
          16 11 15 15 14 -11 15 -16 -16 -12 -15 -14 -15 12 -15 16 hvcurveto
          endchar
        </CharString>
        <CharString name="uni05BB">
          -247 58 -2 58 -2 58 hstemhm
          36 55 9 55 9 55 hintmask 10110100
          64 -77 rmoveto
          -94 callsubr
          hintmask 01011100
          64 -56 rmoveto
          -94 callsubr
          hintmask 10110100
          64 -56 rmoveto
          -94 callsubr
          endchar
        </CharString>
        <CharString name="uni05BC">
          261 21 callsubr
          320 -101 callsubr
        </CharString>
        <CharString name="uni05BE">
          -137 515 30 hstem
          45 216 vstem
          45 515 rmoveto
          216 30 -216 hlineto
          endchar
        </CharString>
        <CharString name="uni05BF">
          538 30 hstem
          32 189 vstem
          221 568 rmoveto
          -189 -30 189 hlineto
          endchar
        </CharString>
        <CharString name="uni05C1">
          523 21 callsubr
          582 rmoveto
          -48 callgsubr
          14 -11 15 -16 hvcurveto
          endchar
        </CharString>
        <CharString name="uni05C2">
          523 21 callsubr
          582 rmoveto
          -48 callgsubr
          14 -11 15 -16 hvcurveto
          endchar
        </CharString>
        <CharString name="uni05C7">
          -102 33 hstem
          69 23 vstem
          126 -69 rmoveto
          -90 -33 39 hlineto
          -12 -100 rlineto
          35 hlineto
          -12 100 rlineto
          40 hlineto
          endchar
        </CharString>
        <CharString name="uni05D0">
          79 21 -21 hstem
          40 442 -89 callgsubr
          endchar
        </CharString>
        <CharString name="uni05D1">
          72 38 callgsubr
          364 -27 callgsubr
          endchar
        </CharString>
        <CharString name="uni05D2">
          -105 10 -21 32 -21 hstemhm
          218 32 hintmask 01100000
          -14 callgsubr
          hintmask 10100000
          28 callgsubr
          hintmask 01100000
          30 -155 rlineto
          endchar
        </CharString>
        <CharString name="uni05D3">
          88 3 callsubr
          334 -8 callsubr
          endchar
        </CharString>
        <CharString name="uni05D4">
          85 3 callsubr
          67 32 317 -30 callsubr
          endchar
        </CharString>
        <CharString name="uni05D5">
          -242 21 -21 hstem
          89 32 vstem
          89 hmoveto
          1 callgsubr
          endchar
        </CharString>
        <CharString name="uni05D6">
          -82 3 callsubr
          155 -7 callgsubr
          endchar
        </CharString>
        <CharString name="uni05D7">
          99 3 callsubr
          70 32 328 32 vstem
          297 545 rmoveto
          -227 -545 32 515 193 hlineto
          89 46 -60 -115 hvcurveto
          -340 32 340 vlineto
          135 -57 70 -108 vhcurveto
          endchar
        </CharString>
        <CharString name="uni05D8">
          85 -10 33 -12 -21 530.5 29.5 hstemhm
          441 32 hintmask 01110000
          -30 callgsubr
          hintmask 10110000
          29 callsubr
          endchar
        </CharString>
        <CharString name="uni05D9">
          -242 210 335 hstem
          89 5 callgsubr
          endchar
        </CharString>
        <CharString name="uni05DA">
          54 515 30 hstem
          385 32 vstem
          385 -200 rmoveto
          32 560 hlineto
          -33 callgsubr
          -187 -30 185 hlineto
          -33 callsubr
          endchar
        </CharString>
        <CharString name="uni05DB">
          19 38 callgsubr
          365 -45 callsubr
          endchar
        </CharString>
        <CharString name="uni05DC">
          19 3 callsubr
          50 32 293 32 vstem
          0 callgsubr
          endchar
        </CharString>
        <CharString name="uni05DD">
          129 38 callgsubr
          90 32 338 32 vstem
          327 545 rmoveto
          -205 hlineto
          -32 -545 12 hlineto
          358 hlineto
          32 360 hlineto
          -33 callgsubr
          -205 -515 rmoveto
          485 203 vlineto
          -33 callsubr
          -330 vlineto
          endchar
        </CharString>
        <CharString name="uni05DE">
          8 callgsubr
          500.31 29 hstemhm
          490 32 hintmask 10110000
          -4 callsubr
          hintmask 01110000
          6 callgsubr
          hintmask 10110000
          6 -217 -90 -96 -174 39 rrcurveto
          hintmask 01110000
          -5 -29 rlineto
          hintmask 10110000
          45 callgsubr
          endchar
        </CharString>
        <CharString name="uni05DF">
          -242 -200 745 hstem
          89 32 vstem
          89 -200 rmoveto
          32 628 hlineto
          -35 callgsubr
          endchar
        </CharString>
        <CharString name="uni05E0">
          -84 0 30 hstem
          247 -16 callgsubr
          endchar
        </CharString>
        <CharString name="uni05E1">
          95 -10 33 -12 -21 525 30 hstemhm
          451 32 hintmask 01110000
          -20 callgsubr
          hintmask 10110000
          -8 callgsubr
          endchar
        </CharString>
        <CharString name="uni05E2">
          63 -22 567 hstem
          414 32 vstem
          414 545 rmoveto
          -309 -11 -114 -142 -63 vhcurveto
          -135 486 -28 callsubr
          138 -497 -14 -6 -15 -4 -17 -5 rlinecurve
          -141 -29 4 -26 136 27 rlineto
          235 59 26 104 377 vvcurveto
          endchar
        </CharString>
        <CharString name="uni05E3">
          93 515 30 hstem
          74.67 30.87 318.46 -55 callgsubr
          endchar
        </CharString>
        <CharString name="uni05E4">
          87 38 callgsubr
          75.31 30.56 327.13 -64 callsubr
          endchar
        </CharString>
        <CharString name="uni05E5">
          -22 -200 745 hstem
          55 341 vstem
          396 545 rmoveto
          -32 hlineto
          -145 -381 -130 381 rlineto
          -34 hlineto
          253 -745 rlineto
          35 hlineto
          -110 321 rlineto
          endchar
        </CharString>
        <CharString name="uni05E6">
          45 0 30 hstem
          45 398 -25 callgsubr
          endchar
        </CharString>
        <CharString name="uni05E7">
          78 3 callsubr
          68 32 -45 callgsubr
          endchar
        </CharString>
        <CharString name="uni05E8">
          19 3 callsubr
          350 32 vstem
          350 hmoveto
          32 360 hlineto
          -33 callgsubr
          -167 -30 165 hlineto
          -33 callsubr
          endchar
        </CharString>
        <CharString name="uni05E9">
          160 -10 33 hstem
          280.5 32 188 32 vstem
          533 417 rmoveto
          -1 128 rlineto
          -100 callgsubr
          endchar
        </CharString>
        <CharString name="uni05EA">
          142 -12 27 6 -21 515 30 hstemhm
          138 31 309 32 hintmask 10111000
          15 callgsubr
          hintmask 01111000
          25 callsubr
          hintmask 10111000
          1 -78 -30 -48 -84 -6 rrcurveto
          endchar
        </CharString>
        <CharString name="uni1E06">
          131 -156 28 128 -1 callgsubr
          hstemhm
          100 32 322 32 10 32 hintmask 11111010
          19 callgsubr
          hintmask 11111110
          -41 callgsubr
          hintmask 11111010
          34 callsubr
          -100 -184 -68 callgsubr
        </CharString>
        <CharString name="uni1E07">
          95 -156 28 116 20 callsubr
          96 30 328 32 hintmask 11011110
          274 -12 rmoveto
          -21 callsubr
          -60 -36 -42 -50 hvcurveto
          2 96 rlineto
          214 -30 vlineto
          hintmask 10111110
          -722 26 vlineto
          hintmask 11011110
          -32 callsubr
          -120 -172 -68 callgsubr
        </CharString>
        <CharString name="uni1E0C">
          157 13 callgsubr
          120 28 604 22 callsubr
          134 64 180 -75 callsubr
          54 -218 -20 callsubr
          endchar
        </CharString>
        <CharString name="uni1E0D">
          97 7 callgsubr
          35 callsubr
          174 64 90 30 hintmask 11011101
          -12 callgsubr
          hintmask 10111101
          -47 callsubr
          hintmask 11011101
          11 callsubr
          vhcurveto
          2 28 -78 callsubr
          hintmask 11011111
          38 -206 -20 callsubr
          endchar
        </CharString>
        <CharString name="uni1E0E">
          157 -156 28 128 28 604 22 callsubr
          378 -75 callsubr
          -66 -184 -68 callgsubr
        </CharString>
        <CharString name="uni1E0F">
          97 -156 28 116 35 callsubr
          328 30 hintmask 11011110
          -12 callgsubr
          hintmask 10111110
          -47 callsubr
          hintmask 11011110
          11 callsubr
          vhcurveto
          2 28 -78 callsubr
          -82 -172 -68 callgsubr
        </CharString>
        <CharString name="uni1E20">
          1 callsubr
          74 28 hstem
          56 34 404 32 vstem
          222 -10 callgsubr
          112 -786 -96 callgsubr
        </CharString>
        <CharString name="uni1E21">
          -31 callgsubr
          118 28 10 callgsubr
          hintmask 1111010101100000
          128 -10 callsubr
          hintmask 1111011001100000
          122 -870 -6 callgsubr
          hintmask 1111010011100000
          -76 callsubr
          hintmask 1110110101100000
          -46 callgsubr
          hintmask 1111010011100000
          -26 callgsubr
          hintmask 1111011001100000
          9 callsubr
          hintmask 1110110101100000
          -61 callgsubr
          hintmask 1111011001100000
          -60 callgsubr
          hintmask 1110110101100000
          21 callgsubr
        </CharString>
        <CharString name="uni1E24">
          191 -190 70 141 46 callsubr
          152 64 154 -40 callgsubr
          216 -850 -20 callsubr
          endchar
        </CharString>
        <CharString name="uni1E25">
          79 -190 70 141 40 callsubr
          18 callgsubr
          122 64 96 30 vstem
          96 hmoveto
          -87 callsubr
          -52 -52 vhcurveto
          322 -30 vlineto
          184 -912 -20 callsubr
          endchar
        </CharString>
        <CharString name="uni1E2A">
          191 -230 26 225 46 callsubr
          38 26 240 26 40 -40 callgsubr
          216 -890 rmoveto
          -14 callsubr
        </CharString>
        <CharString name="uni1E2B">
          79 -230 26 225 40 callsubr
          hstemhm
          96 30 8 26 240 26 -18 30 hintmask 11111001
          96 hmoveto
          -87 callsubr
          -52 -52 vhcurveto
          322 -30 vlineto
          hintmask 11111110
          184 -952 rmoveto
          -14 callsubr
        </CharString>
        <CharString name="uni1E32">
          107 12 callgsubr
          660 -20 hstem
          100 32 160 64 -65 callgsubr
          224 -850 -20 callsubr
          endchar
        </CharString>
        <CharString name="uni1E33">
          9 12 callgsubr
          722 -20 18 callgsubr
          94 64 -65 callsubr
          156 -912 -20 callsubr
          endchar
        </CharString>
        <CharString name="uni1E34">
          107 -156 28 149 24 callgsubr
          hstem
          100 32 -65 callgsubr
          104 -816 -68 callgsubr
        </CharString>
        <CharString name="uni1E35">
          9 -156 28 149 -21 722 -20 hstem
          96 30 -65 callsubr
          36 -878 -68 callgsubr
        </CharString>
        <CharString name="uni1E62">
          73 7 callgsubr
          5 callsubr
          hstem
          84 32 120 64 142 32 vstem
          268 -12 -99 callsubr
          -178 vmoveto
          -104 callgsubr
          endchar
        </CharString>
        <CharString name="uni1E63">
          -43 7 callgsubr
          -9 callsubr
          hstem
          56 32 96 64 84 32 vstem
          208 -12 -97 callsubr
          8 -178 -20 callsubr
          endchar
        </CharString>
        <CharString name="uni1E6C">
          77 12 callgsubr
          632 28 hstemhm
          228 64 -48 32 hintmask 11101000
          -3 callsubr
          hintmask 11110000
          16 -822 -20 callsubr
          endchar
        </CharString>
        <CharString name="uni1E6D">
          -141 7 callgsubr
          28 434 28 hstemhm
          106 30 26 64 hintmask 01110000
          -47 callgsubr
          hintmask 11111000
          -24 -178 -20 callsubr
          endchar
        </CharString>
        <CharString name="uni1E6E">
          77 -156 28 149 -21 632 28 hstem
          244 32 vstem
          -3 callsubr
          -104 -788 -68 callgsubr
        </CharString>
        <CharString name="uni1E6F">
          -141 -156 28 116 28 434 28 hstem
          106 30 vstem
          -47 callgsubr
          -144 -144 -68 callgsubr
        </CharString>
        <CharString name="uni1E7E">
          39 13 callgsubr
          120 41 619 -20 hstem
          212 64 -28 callgsubr
          238 -850 -20 callsubr
          endchar
        </CharString>
        <CharString name="uni1E7F">
          -21 13 callgsubr
          120 32 hstem
          180 64 -29 callsubr
          200 -668 -20 callsubr
          endchar
        </CharString>
        <CharString name="uni1E92">
          95 13 callgsubr
          120 28 604 28 hstem
          250 64 vstem
          52 hmoveto
          -59 callgsubr
          230 -208 -20 callsubr
          endchar
        </CharString>
        <CharString name="uni1E93">
          -47 13 callgsubr
          120 28 422 28 hstem
          182 64 vstem
          26 hmoveto
          -60 callsubr
          188 -206 -20 callsubr
          endchar
        </CharString>
        <CharString name="uni1E94">
          95 -156 28 128 28 604 28 hstem
          52 436 vstem
          52 hmoveto
          -59 callgsubr
          110 -174 -68 callgsubr
        </CharString>
        <CharString name="uni1E95">
          -47 -156 28 128 28 422 28 hstem
          26 344 vstem
          26 hmoveto
          -60 callsubr
          68 -172 -68 callgsubr
        </CharString>
        <CharString name="uni1E96">
          79 -156 28 149 40 callsubr
          18 callgsubr
          282 30 vstem
          96 hmoveto
          -87 callsubr
          -52 -52 vhcurveto
          322 -30 vlineto
          64 -878 -68 callgsubr
        </CharString>
        <CharString name="uni1EA0">
          77 -190 70 141 -34 callgsubr
          hstem
          228 64 vstem
          510 hmoveto
          -236 660 rlineto
          -28 hlineto
          -236 -660 14 callgsubr
          83 236 rlineto
          269 hlineto
          82 -236 rlineto
          -341 264 rmoveto
          47 132 28 80 24 68 24 82 rlinecurve
          4 hlineto
          24 -82 24 -68 28 -80 46 -132 rcurveline
          -124 -384 15 callsubr
        </CharString>
        <CharString name="uni1EA1">
          43 7 callgsubr
          -53 callgsubr
          hstemhm
          60 32 118 64 100 30 hintmask 01011010
          198 -12 rmoveto
          -51 callsubr
          hintmask 00111010
          -103 callgsubr
          hintmask 01011010
          -92 callgsubr
          hintmask 11011110
          42 -206 -20 callsubr
          endchar
        </CharString>
        <CharString name="uni1EB8">
          67 13 callgsubr
          120 -1 callgsubr
          hstem
          100 32 126 64 vstem
          100 hmoveto
          -82 callgsubr
          190 -850 -20 callsubr
          endchar
        </CharString>
        <CharString name="uni1EB9">
          35 7 callgsubr
          -34 callsubr
          7 callsubr
          132 64 128 30 vstem
          440 270 -107 callsubr
          -160 -386 15 callsubr
        </CharString>
        <CharString name="uni1ECC">
          205 7 callgsubr
          39 callsubr
          202 64 202 34 vstem
          324 -12 rmoveto
          -107 callgsubr
          -208 vmoveto
          -104 callgsubr
          endchar
        </CharString>
        <CharString name="uni1ECD">
          89 7 callgsubr
          11 callgsubr
          148 64 148 32 vstem
          266 -12 rmoveto
          -100 callsubr
          -206 vmoveto
          -104 callgsubr
          endchar
        </CharString>
        <CharString name="uni200E">
          858 36 hstem
          -114 258 29 callgsubr
          -191 -36 191 hlineto
          -63 -66 rlineto
          endchar
        </CharString>
        <CharString name="uni200F">
          858 36 hstem
          -144 260 44 callsubr
          192 36 -193 hlineto
          63 64 -25 26 -105 -109 rlineto
          endchar
        </CharString>
        <CharString name="uni2010">
          -57 callsubr
        </CharString>
        <CharString name="uni2010.lat">
          -57 callsubr
        </CharString>
        <CharString name="uni202D">
          858 36 hstem
          -156 327 vstem
          -31 767 rmoveto
          104 108 -104 109 -26 -27 61 -63 rlineto
          -160 -36 162 hlineto
          -63 -66 rlineto
          123 -25 rmoveto
          105 108 -105 109 -25 -27 82 -82 -82 -83 rlineto
          endchar
        </CharString>
        <CharString name="uni202E">
          895 34 hstem
          -171 328 vstem
          -66 805 rmoveto
          25 26 -80 83 80 81 -25 26 -105 -107 rlineto
          202 -109 rmoveto
          28 26 -63 64 rlineto
          161 34 -161 hlineto
          63 66 -28 26 -102 -107 rlineto
          endchar
        </CharString>
        <CharString name="uni210A">
          97 -234 27 205 28 436 28 7 callsubr
          328 30 vstem
          258 -234 rmoveto
          118 68 74 112 hvcurveto
          526 -28 vlineto
          -4 -44 rlineto
          -2 hlineto
          34 -44 -40 22 -58 hhcurveto
          -116 -98 -94 -152 -160 78 -86 120 66 56 37 41 40 hvcurveto
          -116 vlineto
          -104 -54 -63 -102 -52 -50 15 36 -48 vhcurveto
          -16 -26 rlineto
          -32 46 54 -20 66 hhcurveto
          -4 260 rmoveto
          -108 -60 88 130 122 78 96 102 50 44 -18 -48 54 hvcurveto
          -286 vlineto
          -54 -54 -50 -30 -56 hhcurveto
          endchar
        </CharString>
        <CharString name="uni2215">
          -79 callgsubr
        </CharString>
        <CharString name="uni2215.lat">
          -79 callgsubr
        </CharString>
        <CharString name="uni2219">
          37 284 78 hstem
          198 72 vstem
          234 284 rmoveto
          -80 callgsubr
          endchar
        </CharString>
        <CharString name="uniFB2A">
          160 -10 33 600 59 hstemhm
          280.5 32 179.5 55 -46.5 32 hintmask 00000000
          hintmask 11110000
          520 682 rmoveto
          -48 callgsubr
          14 -11 15 -16 hvcurveto
          hintmask 10101000
          12 -137 rmoveto
          -100 callgsubr
          endchar
        </CharString>
        <CharString name="uniFB2B">
          160 -10 33 600 59 hstem
          42 55 183.5 32 188 32 vstem
          97 653 rmoveto
          14 -11 15 -16 -48 callgsubr
          vhcurveto
          436 -236 rmoveto
          -1 128 rlineto
          -100 callgsubr
          endchar
        </CharString>
        <CharString name="uniFB2C">
          160 -10 33 245 59 296 31 callgsubr
          96 55 -46.5 32 hintmask 00000000
          hintmask 10110100
          520 682 rmoveto
          -48 callgsubr
          14 -11 15 -16 hvcurveto
          hintmask 10010010
          12 -137 rmoveto
          -100 callgsubr
          hintmask 11011010
          -164 -149 -50 callsubr
        </CharString>
        <CharString name="uniFB2D">
          160 -10 33 245 59 296 59 hstemhm
          42 55 183.5 32 28.5 55 104.5 32 hintmask 10111010
          97 653 rmoveto
          14 -11 15 -16 -48 callgsubr
          vhcurveto
          436 -236 rmoveto
          -1 128 rlineto
          -100 callgsubr
          hintmask 11111110
          -164 -149 -50 callsubr
        </CharString>
        <CharString name="uniFB2E">
          79 -94 33 82 -21 hstem
          184 154 -89 callgsubr
          -107 -61 rmoveto
          -154 -33 154 hlineto
          endchar
        </CharString>
        <CharString name="uniFB2F">
          79 -94 33 82 -21 hstem
          247 27 -89 callgsubr
          -107 -61 rmoveto
          -154 -33 67 hlineto
          -8 -100 rlineto
          35 hlineto
          -8 100 rlineto
          68 hlineto
          endchar
        </CharString>
        <CharString name="uniFB30">
          79 21 -21 108 59 hstem
          201 55 -89 callgsubr
          -216 167 -101 callsubr
        </CharString>
        <CharString name="uniFB31">
          72 30 callgsubr
          167 55 142 -27 callgsubr
          -248 268 -24 callsubr
        </CharString>
        <CharString name="uniFB32">
          -105 10 -21 32 -21 268 59 hstemhm
          63 55 100 32 hintmask 01101000
          -14 callgsubr
          hintmask 10101000
          28 callgsubr
          hintmask 01111000
          30 -155 rlineto
          -165 268 -50 callsubr
        </CharString>
        <CharString name="uniFB33">
          88 21 -21 -17 callgsubr
          hstem
          168 55 111 -8 callsubr
          -138 -71 -101 callsubr
        </CharString>
        <CharString name="uniFB34">
          85 21 -21 -17 callgsubr
          hstem
          67 32 137 55 125 -30 callsubr
          197 59 -101 callsubr
        </CharString>
        <CharString name="uniFB35">
          -242 21 -21 268 59 hstem
          -27 55 61 32 vstem
          89 hmoveto
          1 callgsubr
          -88 -101 -101 callsubr
        </CharString>
        <CharString name="uniFB36">
          -82 21 -21 -17 callgsubr
          hstem
          43 55 57 -7 callgsubr
          -84 -71 -101 callsubr
        </CharString>
        <CharString name="uniFB38">
          85 -10 33 -12 -21 278 59 193.5 29.5 hstemhm
          241 55 145 32 hintmask 01010100
          -30 callgsubr
          hintmask 10111100
          29 callsubr
          214 -218 -101 callsubr
        </CharString>
        <CharString name="uniFB39">
          -242 357 59 hstem
          -16 55 50 5 callgsubr
          -77 -12 -101 callsubr
        </CharString>
        <CharString name="uniFB3A">
          54 -17 callgsubr
          hstem
          171 55 159 32 vstem
          385 -200 rmoveto
          32 560 hlineto
          -33 callgsubr
          -187 -30 185 hlineto
          -33 callsubr
          -186 -33 -101 callsubr
        </CharString>
        <CharString name="uniFB3B">
          19 30 callgsubr
          166 55 144 -45 callsubr
          139 297 -101 callsubr
        </CharString>
        <CharString name="uniFB3C">
          19 21 -21 -17 callgsubr
          hstemhm
          50 32 26 55 212 32 hintmask 11110100
          0 callgsubr
          hintmask 11111100
          -271 -218 -101 callsubr
        </CharString>
        <CharString name="uniFB3E">
          8 callgsubr
          249.31 59 192 29 hstemhm
          292 55 143 32 hintmask 10010100
          -4 callsubr
          hintmask 01010100
          6 callgsubr
          hintmask 10010100
          6 -217 -90 -96 -174 39 rrcurveto
          hintmask 01010100
          -5 -29 rlineto
          hintmask 10010100
          45 callgsubr
          hintmask 10111100
          -175 -3 -24 callsubr
        </CharString>
        <CharString name="uniFB40">
          -84 0 30 238 59 hstem
          82 55 110 -16 callgsubr
          55 297 -101 callsubr
        </CharString>
        <CharString name="uniFB41">
          95 -10 33 -12 -21 278 59 188 30 hstemhm
          240 55 156 32 hintmask 01110100
          -20 callgsubr
          hintmask 10111100
          -8 callgsubr
          117 304 -101 callsubr
        </CharString>
        <CharString name="uniFB43">
          93 -17 callgsubr
          hstem
          74.67 30.87 154.46 55 109 -55 callgsubr
          25 -218 -101 callsubr
        </CharString>
        <CharString name="uniFB44">
          87 30 callgsubr
          75.31 30.56 148.13 55 124 -64 callsubr
          191 297 -101 callsubr
        </CharString>
        <CharString name="uniFB46">
          45 0 30 108 59 hstem
          131 55 -25 callgsubr
          -257 168 -24 callsubr
        </CharString>
        <CharString name="uniFB47">
          78 21 -21 -17 callgsubr
          hstem
          68 32 138 55 -45 callgsubr
          198 39 -101 callsubr
        </CharString>
        <CharString name="uniFB48">
          19 21 -21 -17 callgsubr
          hstem
          136 55 159 32 vstem
          350 hmoveto
          32 360 hlineto
          -33 callgsubr
          -167 -30 165 hlineto
          -33 callsubr
          -186 -33 -101 callsubr
        </CharString>
        <CharString name="uniFB49">
          160 -10 33 245 31 callgsubr
          104.5 32 hintmask 10101000
          533 417 rmoveto
          -1 128 rlineto
          -100 callgsubr
          hintmask 11111000
          -164 -149 -50 callsubr
        </CharString>
        <CharString name="uniFB4A">
          142 -12 27 6 -21 -17 callgsubr
          hstemhm
          138 31 122 55 132 32 hintmask 10111010
          15 callgsubr
          hintmask 01111010
          25 callsubr
          hintmask 10111110
          1 -78 -30 -48 -84 -6 rrcurveto
          294 312 -101 callsubr
        </CharString>
        <CharString name="uniFB4B">
          -242 21 -21 607 59 hstemhm
          51 55 -17 32 hintmask 00000000
          hintmask 11100000
          79 666 rmoveto
          17 callgsubr
          16 11 14 16 -56 callsubr
          hintmask 11010000
          10 -666 rmoveto
          1 callgsubr
          endchar
        </CharString>
        <CharString name="upsilonlatin">
          85 -12 28 434 28 hstemhm
          44 162 -150 32 234 162 -44 32 hintmask 11010100
          264 -12 rmoveto
          132 76 108 120 114 -52 76 -46 42 hvcurveto
          2 vlineto
          hintmask 11011000
          110 28 -162 -20 hlineto
          hintmask 11010100
          66 -44 52 -80 -112 vvcurveto
          -108 -62 -98 48 callgsubr
          -62 98 108 112 52 80 66 44 vhcurveto
          hintmask 11100100
          20 -162 -28 vlineto
          hintmask 11010100
          110 -2 hlineto
          -46 -42 -52 -76 -114 vvcurveto
          -120 76 -108 132 vhcurveto
          endchar
        </CharString>
        <CharString name="v">
          -21 0 32 hstem
          12 398 -29 callsubr
          endchar
        </CharString>
        <CharString name="w">
          229 0 30 418 30 hstem
          24 624 vstem
          168 hmoveto
          38 hlineto
          88 310 16 46 12 46 12 46 rlinecurve
          4 hlineto
          14 -46 10 -44 14 -46 90 -312 rcurveline
          42 hlineto
          140 478 -28 callsubr
          -90 -322 -12 -44 -12 -40 -12 -42 12 callsubr
          -12 42 -12 40 -12 44 -92 322 rcurveline
          -42 hlineto
          -92 -322 -12 -44 -12 -40 -12 -42 12 callsubr
          -10 42 -12 40 -12 44 -92 322 rcurveline
          -34 hlineto
          endchar
        </CharString>
        <CharString name="x">
          -51 21 -21 hstem
          14 364 vstem
          14 hmoveto
          32 hlineto
          88 138 20 30 18 30 20 28 rlinecurve
          4 hlineto
          20 -28 20 -30 18 -30 90 -138 rcurveline
          34 hlineto
          -164 248 150 230 -28 callsubr
          -80 -128 -18 -26 -16 -26 -18 -26 12 callsubr
          -18 26 -18 26 -16 26 -82 128 rcurveline
          -34 hlineto
          150 -228 rlineto
          endchar
        </CharString>
        <CharString name="y">
          -19 -222 30 hstem
          12 400 vstem
          66 -222 -87 callgsubr
        </CharString>
        <CharString name="yacute">
          -19 -222 30 916 -20 hstem
          12 400 vstem
          190 -70 callgsubr
          -106 -812 -87 callgsubr
        </CharString>
        <CharString name="ydieresis">
          -19 -222 30 794 64 hstem
          106 64 108 64 vstem
          138 -98 callgsubr
          -244 -824 -87 callgsubr
        </CharString>
        <CharString name="yen">
          -69 callgsubr
        </CharString>
        <CharString name="yen.heb">
          97 endchar
        </CharString>
        <CharString name="yen.lat">
          -69 callgsubr
        </CharString>
        <CharString name="z">
          -47 0 28 422 28 hstem
          26 344 vstem
          26 hmoveto
          -60 callsubr
          endchar
        </CharString>
        <CharString name="zcaron">
          -47 0 28 422 28 94 42 callsubr
          26 344 vstem
          202 -84 callsubr
          -58 -718 rmoveto
          -60 callsubr
          endchar
        </CharString>
        <CharString name="zero">
          -88 callgsubr
        </CharString>
        <CharString name="zero.heb">
          -88 callgsubr
        </CharString>
        <CharString name="zero.lat">
          -88 callgsubr
        </CharString>
        <CharString name="zero.pnumheb">
          -62 callgsubr
        </CharString>
        <CharString name="zero.pnumlat">
          -62 callgsubr
        </CharString>
        <CharString name="zero.slash">
          57 endchar
        </CharString>
        <CharString name="zero.slashpnum">
          57 endchar
        </CharString>
      <CharString index="0">
        156 112 136 208 208 -112 132 23 callgsubr
        -112 2 callsubr
        112 -136 156 hvcurveto
        30 vmoveto
        -140 -94 3 callgsubr
        94 120 140 140 94 -120 -190 -190 -94 -124 -140 hvcurveto
        return
      </CharString>
      <CharString index="1">
        47 callsubr
        76 74 92 86 -58 42 -54 34 hvcurveto
        4 vlineto
        hintmask 11011000
        36 30 56 64 72 vvcurveto
        94 -62 72 -108 -90 -72 -64 -90 -68 46 -48 46 -30 vhcurveto
        -4 vlineto
        hintmask 11100100
        -60 -32 -70 -64 -88 vvcurveto
        -100 84 -76 116 vhcurveto
        hintmask 11011000
        48 342 rmoveto
        -86 34 -92 38 96 vvcurveto
        72 54 54 76 88 50 -64 -74 -58 -32 -52 -58 -46 vhcurveto
        hintmask 11100100
        -48 -314 rmoveto
        -98 -70 66 82 74 52 56 70 40 hvcurveto
        102 -40 102 -36 -104 vvcurveto
        -76 -62 -62 -96 vhcurveto
        endchar
      </CharString>
      <CharString index="2">
        34 hlineto
        -236 660 rlineto
        -28 hlineto
        -236 -660 14 callgsubr
        83 236 rlineto
        269 hlineto
        -259 28 rmoveto
        47 132 28 80 24 68 24 82 rlinecurve
        4 hlineto
        24 -82 24 -68 28 -80 46 -132 rcurveline
        endchar
      </CharString>
      <CharString index="3">
        -52 callgsubr
        20 -14 14 -18 -18 -14 -14 -20 -53 callsubr
        hvcurveto
        return
      </CharString>
      <CharString index="4">
        4 -64 rlineto
        26 310 hlineto
        96 -34 84 -112 -78 -66 -40 -22 -30 vhcurveto
        16 -24 rlineto
        24 30 58 34 68 hhcurveto
        100 20 -86 -78 -2 hvcurveto
        -216 -24 -98 -50 -107 vvcurveto
        return
      </CharString>
      <CharString index="5">
        -100 callsubr
        endchar
      </CharString>
      <CharString index="6">
        29 -12 28 356 30 210 28 hstem
        392 32 vstem
        224 -12 rmoveto
        100 100 76 136 140 -86 62 -108 -50 -36 -15 -21 -34 hvcurveto
        22 246 rlineto
        258 28 -286 hlineto
        -24 -296 26 -16 rlineto
        26 38 34 18 50 hhcurveto
        100 64 -66 -108 -108 -78 -74 -88 -92 -50 40 40 -38 hvcurveto
        -20 -22 rlineto
        -40 40 56 -46 102 hhcurveto
        endchar
      </CharString>
      <CharString index="7">
        -32 hlineto
        1 -128 2 -268 -139 -112 -213 -14 rlinecurve
        -22 181 123 65 55 65 5 153 rlinecurve
        1 55 -28 callsubr
        -1 -55 -5 -137 -44 -53 -106 -61 rlinecurve
        -38 309 -28 callsubr
        67 -555 266 10 147 129 -2 288 rlinecurve
        return
      </CharString>
      <CharString index="8">
        rmoveto
        -51 callsubr
        hintmask 01111100
        -103 callgsubr
        hintmask 10111100
        -92 callgsubr
        endchar
      </CharString>
      <CharString index="9">
        602 rmoveto
        18 14 14 18 18 -14 14 -18 -18 -14 -14 -18 -18 14 -44 callsubr
        172 hmoveto
        18 14 14 18 18 -14 14 -18 -18 -14 -14 -18 -18 14 -44 callsubr
        return
      </CharString>
      <CharString index="10">
        -77 callsubr
        128 hmoveto
        -104 callsubr
        endchar
      </CharString>
      <CharString index="11">
        rmoveto
        86 66 30 44 40 hvcurveto
        256 -196 -28 164 -218 vlineto
        -34 -34 -60 -20 -64 hhcurveto
        -154 -92 3 callgsubr
        96 120 158 74 48 -32 -38 34 hvcurveto
        20 22 rlineto
        36 -34 -54 42 -88 hhcurveto
        -174 -114 2 callsubr
        110 -136 168 hvcurveto
        endchar
      </CharString>
      <CharString index="12">
        224 rmoveto
        -98 416 -20 hlineto
        -306 -428 rlineto
        -16 296 -196 30 196 98 vlineto
        -382 28 rmoveto
        hintmask 11101000
        202 282 18 28 18 22 16 26 rlinecurve
        4 hlineto
        -2 -28 -2 -50 -28 vvcurveto
        -252 vlineto
        endchar
      </CharString>
      <CharString index="13">
        -83 398 26 172 24 130 -20 56 26 hstemhm
        258 30 -14 30 hintmask 11110100
        176 398 rmoveto
        72 56 42 72 56 -46 34 -48 8 hvcurveto
        hintmask 11111000
        44 16 34 34 50 vvcurveto
        64 -52 38 -64 -48 -40 -28 -34 -26 vhcurveto
        20 -18 rlineto
        32 26 34 22 32 hhcurveto
        54 34 -32 -46 -46 -46 -42 -82 hvcurveto
        -24 vlineto
        hintmask 11110100
        88 56 -30 -54 -56 -44 -32 -52 -46 -42 28 38 -24 hvcurveto
        -24 -18 rlineto
        -38 26 48 -36 60 hhcurveto
        endchar
      </CharString>
      <CharString index="14">
        rmoveto
        106 112 54 204 hvcurveto
        414 -30 -406 vlineto
        -182 -90 -54 -98 -96 -88 54 182 vhcurveto
        406 -32 -414 vlineto
        -204 110 -54 106 vhcurveto
        endchar
      </CharString>
      <CharString index="15">
        -91 64 -38 74 vhcurveto
        2 28 rmoveto
        -58 -50 28 74 82 72 48 210 24 hvcurveto
        -174 vlineto
        -54 -64 -52 -28 -58 hhcurveto
        return
      </CharString>
      <CharString index="16">
        0 28 596 28 hstem
        362 32 vstem
        42 hmoveto
        384 28 -230 hlineto
        -36 -36 -2 -2 -36 hvcurveto
        188 199 118 123 130 vvcurveto
        106 -64 70 -112 return
      </CharString>
      <CharString index="17">
        -141 -234 28 5 -21 210 28 434 28 230 28 -12 -20 hstemhm
        106 30 260 30 hintmask 10110111
        328 33 callgsubr
        702 vlineto
        hintmask 10111011
        62 12 46 64 16 16 -6 -4 10 vhcurveto
        hintmask 10110111
        8 26 rlineto
        hintmask 10111011
        6 -12 -19 6 -17 hhcurveto
        -73 -35 -40 -92 hvcurveto
        -702 vlineto
        -18 callsubr
        hintmask 01110111
        -8 -26 rlineto
        hintmask 10110111
        22 callgsubr
        -110 222 -93 callsubr
        endchar
      </CharString>
      <CharString index="18">
        vstem
        482 hmoveto
        -143 209 108 336 rlineto
        -33 hlineto
        -73 -229 -21 -78 -109 160 -94 147 rlineto
        -35 hlineto
        91 -141 -25 -60 -108 -344 14 callgsubr
        119 375 254 -375 rlineto
        return
      </CharString>
      <CharString index="19">
        29 -12 28 608 28 hstem
        50 32 308 32 vstem
        236 -12 rmoveto
        120 66 122 212 212 -66 118 -120 -120 -66 -118 -212 -212 66 -122 120 hvcurveto
        28 vmoveto
        -94 -60 108 198 198 60 104 94 94 60 -104 -198 -198 -60 -108 -94 hvcurveto
        endchar
      </CharString>
      <CharString index="20">
        rmoveto
        82 48 80 74 24 hvcurveto
        192 546 -28 callsubr
        -108 -314 -14 -40 -16 -52 -16 -42 12 callsubr
        -18 42 -20 52 -16 40 -122 314 rcurveline
        -34 hlineto
        198 -490 -14 -44 rlineto
        -78 -26 -42 -58 -60 hhcurveto
        -14 -16 4 4 -10 hvcurveto
        -8 -28 rlineto
        -6 12 18 -4 16 hhcurveto
        endchar
      </CharString>
      <CharString index="21">
        rmoveto
        250 26 -202 hlineto
        106 104 72 66 84 vvcurveto
        82 -48 40 -70 -48 -46 -34 -38 -22 vhcurveto
        20 -18 rlineto
        34 22 34 30 38 hhcurveto
        54 36 -38 -60 -68 -58 -60 -138 -130 hvcurveto
        endchar
      </CharString>
      <CharString index="22">
        -51 326 26 144 26 -16 -20 114 26 60 26 hstemhm
        16 28 86 28 84 30 76 28 hintmask 1011111110000000
        196 326 rmoveto
        98 82 76 116 116 -82 78 -98 -98 -82 -78 -116 -116 82 -76 98 hvcurveto
        26 vmoveto
        -84 -68 70 96 96 68 72 84 84 68 -72 -96 -96 -68 -70 -84 hvcurveto
        hintmask 1101111110000000
        -66 66 rmoveto
        28 78 50 hlineto
        hintmask 1011111110000000
        40 -78 rlineto
        34 hlineto
        -50 88 rlineto
        22 6 18 24 26 vvcurveto
        50 -38 14 -38 vhcurveto
        -66 hlineto
        hintmask 1101111110000000
        28 -104 rmoveto
        78 34 vlineto
        38 12 -16 -24 -28 -22 -10 -32 hvcurveto
        endchar
      </CharString>
      <CharString index="23">
        rmoveto
        240 28 -240 hlineto
        return
      </CharString>
      <CharString index="24">
        -38 16 -20 22 20 14 12 22 22 -18 10 -16 -3 -3 0 -1 -2 vhcurveto
        56 22 31 42 36 vhcurveto
        return
      </CharString>
      <CharString index="25">
        364 28 -332 310 270 28 -270 266 322 28 -354 hlineto
        return
      </CharString>
      <CharString index="26">
        29 84 28 400 28 112 -20 hstem
        62 32 158 28 vstem
        428 148 rmoveto
        -18 20 -33 -30 -45 -25 -52 -1 rlinecurve
        400 vlineto
        48 -1 39 -22 31 -29 18 20 rcurveline
        -31 29 -41 30 -64 1 rrcurveto
        112 -28 -113 vlineto
        -104 -11 -86 -78 -138 vvcurveto
        -136 80 -81 110 -10 vhcurveto
        -111 28 110 vlineto
        60 1 49 28 39 35 rrcurveto
        -334 164 rmoveto
        110 68 77 90 11 vhcurveto
        -397 vlineto
        -96 11 -62 77 111 vvcurveto
        endchar
      </CharString>
      <CharString index="27">
        20 callgsubr
        24 26 -18 14 -18 -18 -18 -14 -26 -24 18 -44 callsubr
        return
      </CharString>
      <CharString index="28">
        -365 9 -21 684 -20 hstem
        -164 402 vstem
        -164 -12 -72 callgsubr
        endchar
      </CharString>
      <CharString index="29">
        -173 -152 22 396 24 396 22 hstemhm
        36 62 16 32 hintmask 11101000
        222 -152 rmoveto
        30 22 -32 hlineto
        -64 -16 36 72 hvcurveto
        66 6 56 74 vvcurveto
        54 -10 36 -38 12 vhcurveto
        4 vlineto
        38 12 10 34 56 74 -6 56 66 vvcurveto
        72 16 36 64 vhcurveto
        32 22 -30 hlineto
        -72 -36 -26 -100 hvcurveto
        -74 8 -66 -72 vvcurveto
        hintmask 11111000
        -40 -16 -40 -70 vhcurveto
        -24 vlineto
        hintmask 11101000
        70 16 -40 -42 hvcurveto
        -70 -8 -66 -74 vvcurveto
        -100 36 -26 72 vhcurveto
        endchar
      </CharString>
      <CharString index="30">
        29 21 -21 218 28 178 28 198 -20 hstem
        36 406 vstem
        94 hmoveto
        28 hlineto
        26 218 rlineto
        156 hlineto
        -26 -218 rlineto
        28 hlineto
        26 218 rlineto
        90 28 -86 hlineto
        22 178 rlineto
        84 28 -82 hlineto
        26 198 rlineto
        -28 hlineto
        -26 -198 rlineto
        -156 hlineto
        26 198 rlineto
        -28 hlineto
        -26 -198 rlineto
        -92 -28 90 hlineto
        -22 -178 rlineto
        -88 -28 84 hlineto
        32 28 rmoveto
        22 178 rlineto
        156 hlineto
        -22 -178 rlineto
        endchar
      </CharString>
      <CharString index="31">
        157 418 40 178 40 -28 28 hstemhm
        112 30 164 30 202 30 hintmask 10111100
        112 370 rmoveto
        30 278 110 28 -250 -28 110 hlineto
        194 -278 rmoveto
        30 170 hlineto
        -4 96 rlineto
        4 hlineto
        86 -218 rlineto
        30 hlineto
        hintmask 11011100
        86 218 rlineto
        4 hlineto
        -4 -96 rlineto
        -170 30 306 -44 vlineto
        -52 -130 -32 -88 rlineto
        -4 hlineto
        -32 88 rlineto
        hintmask 10111100
        -54 130 rlineto
        -44 hlineto
        endchar
      </CharString>
      <CharString index="32">
        -109 402 26 280 26 hstem
        44 30 178 28 vstem
        140 402 rmoveto
        44 36 24 24 28 hvcurveto
        4 hlineto
        6 -40 rlineto
        22 202 hlineto
        72 -22 50 -76 -52 -48 -26 -16 -24 vhcurveto
        12 -22 rlineto
        16 22 46 22 42 hhcurveto
        58 14 -44 -54 hvcurveto
        -144 -14 -64 -34 -70 vvcurveto
        -58 40 -32 56 vhcurveto
        6 26 rmoveto
        -44 -28 20 46 48 46 32 132 14 hvcurveto
        -108 vlineto
        -36 -38 -36 -16 -32 hhcurveto
        endchar
      </CharString>
      <CharString index="33">
        vhcurveto
        22 -20 rlineto
        50 40 54 36 60 hhcurveto
        102 44 -66 -82 -114 -104 -120 -216 -222 hvcurveto
        endchar
      </CharString>
      <CharString index="34">
        rmoveto
        20 16 -124 162 124 160 -20 18 -138 -164 rlineto
        -28 vlineto
        return
      </CharString>
      <CharString index="35">
        rmoveto
        32 hlineto
        370 684 -28 callsubr
        return
      </CharString>
      <CharString index="36">
        87 38 67 55 7 hvcurveto
        -26 4 rlineto
        -52 -7 -32 -48 -67 hhcurveto
        -67 -32 48 52 -7 hvcurveto
        -26 -4 rlineto
        -55 7 38 -67 87 hhcurveto
        return
      </CharString>
      <CharString index="37">
        574 rmoveto
        138 150 -24 20 -132 -154 rlineto
        return
      </CharString>
      <CharString index="38">
        29 21 -21 168 28 74 28 342 -20 hstem
        220 30 vstem
        220 hmoveto
        30 168 170 28 -170 74 170 28 -158 hlineto
        178 342 -28 callsubr
        -100 -202 -24 -44 -20 -44 -26 -50 12 callsubr
        -24 50 -22 44 -22 44 -100 202 rcurveline
        -34 hlineto
        176 -342 rlineto
        -156 -28 168 -74 -168 -28 168 hlineto
        endchar
      </CharString>
      <CharString index="39">
        -84 callgsubr
        endchar
      </CharString>
      <CharString index="40">
        -18 22 rlineto
        -32 -34 -46 -26 -54 hhcurveto
        -110 -72 90 132 132 80 92 102 50 38 -24 -30 32 hvcurveto
        20 22 rlineto
        30 -32 -42 30 -66 hhcurveto
        -114 -100 -92 -160 return
      </CharString>
      <CharString index="41">
        -66 -42 68 114 114 42 66 66 66 42 -66 48 callgsubr
        -42 -68 -66 hvcurveto
        return
      </CharString>
      <CharString index="42">
        vstem
        100 hmoveto
        32 234 hlineto
        142 160 226 -394 rlineto
        38 hlineto
        -240 418 212 242 rlineto
        -40 hlineto
        -336 -380 rlineto
        -2 380 -32 hlineto
        return
      </CharString>
      <CharString index="43">
        -83 740 22 -22 60 hstemhm
        178 28 hintmask 10100000
        178 410 rmoveto
        28 hlineto
        hintmask 01100000
        390 -26 vlineto
        hintmask 10100000
        -22 -18 -26 -12 -36 -8 rrcurveto
        -22 82 vlineto
        endchar
      </CharString>
      <CharString index="44">
        38 40 26 52 26 hvcurveto
        -22 14 rlineto
        -48 -24 -26 -16 -30 -58 -48 92 -76 hhcurveto
        -38 -40 -26 -54 -26 hvcurveto
        22 -12 rlineto
        48 24 26 16 30 58 48 -92 76 hhcurveto
        return
      </CharString>
      <CharString index="45">
        61 -12 28 608 28 hstem
        56 32 328 32 vstem
        252 -12 rmoveto
        126 70 122 212 212 -70 118 -126 -126 -70 -118 -212 -212 70 -122 126 hvcurveto
        28 vmoveto
        -100 -64 108 198 198 64 104 100 100 64 -104 -198 -198 -64 -108 -100 hvcurveto
        endchar
      </CharString>
      <CharString index="46">
        -10 414 rmoveto
        -70 -62 58 84 86 60 54 72 72 60 -55 -85 -84 -62 -58 -70 hvcurveto
        12 -386 rmoveto
        return
      </CharString>
      <CharString index="47">
        -106 -60 44 64 36 20 40 48 32 hvcurveto
        -6 26 26 -2 6 hhcurveto
        110 hlineto
        76 40 -22 -56 hvcurveto
        return
      </CharString>
      <CharString index="48">
        436 28 -396 hlineto
        392 614 rlineto
        18 -398 -28 358 vlineto
        -392 -614 rlineto
        return
      </CharString>
      <CharString index="49">
        570 rmoveto
        -95 callsubr
        return
      </CharString>
      <CharString index="50">
        -16 -12 -16 -14 -15 12 -14 16 16 11 14 15 15 -11 15 -16 hvcurveto
        return
      </CharString>
      <CharString index="51">
        -55 48 callsubr
        42 34 100 34 vstem
        180 74 -73 callgsubr
        272 -164 9 callgsubr
      </CharString>
      <CharString index="52">
        32 vstem
        263 545 rmoveto
        -152 hlineto
        -28 -139 -23 -113 25 -52 68 -24 rlinecurve
        14 26 -59 20 -15 47 22 96 rlinecurve
        22 109 rlineto
        126 hlineto
        108 53 -68 -147 hvcurveto
        -500 32 502 vlineto
        167 -1 -72 76 -120 hhcurveto
        return
      </CharString>
      <CharString index="53">
        -139 454 26 178 26 hstem
        42 28 164 28 vstem
        152 454 rmoveto
        56 54 42 72 74 -54 42 -56 -56 -54 -42 -74 -72 54 -42 56 hvcurveto
        26 vmoveto
        -48 -34 38 50 52 34 38 48 48 34 -38 -52 -50 -34 -38 -48 hvcurveto
        endchar
      </CharString>
      <CharString index="54">
        28 5 -32 callgsubr
        return
      </CharString>
      <CharString index="55">
        18 14 14 22 return
      </CharString>
      <CharString index="56">
        -85 402 26 280 26 hstem
        34 30 228 30 vstem
        178 402 rmoveto
        80 64 62 104 106 -64 60 -80 -80 -64 -60 -106 -104 64 -62 80 hvcurveto
        26 vmoveto
        -68 -46 58 82 84 46 56 68 68 46 -56 -84 -82 -46 -58 -68 hvcurveto
        endchar
      </CharString>
      <CharString index="57">
        -173 730 -20 hstem
        152 28 vstem
        48 -174 rmoveto
        82 132 50 144 176 vvcurveto
        176 -50 144 -82 132 vhcurveto
        -18 -12 rlineto
        80 -126 42 -154 -160 vvcurveto
        -160 -42 -154 -80 -126 vhcurveto
        endchar
      </CharString>
      <CharString index="58">
        15 -11 14 -16 return
      </CharString>
      <CharString index="59">
        -16 -12 -15 -14 -15 12 -15 16 16 11 15 15 return
      </CharString>
      <CharString index="60">
        218 -12 -93 callsubr
        return
      </CharString>
      <CharString index="61">
        6 -14 -22 6 -26 hhcurveto
        -92 -72 -72 -96 -58 30 -48 30 -26 hvcurveto
        -4 vlineto
        return
      </CharString>
      <CharString index="62">
        vstem
        209 hmoveto
        103 8 117 62 10 211 20 234 rcurveline
        2 30 rlineto
        -401 -30 367 hlineto
        -20 -234 -14 -209 -95 -29 -94 -13 rlinecurve
        -136 -230 rmoveto
        32 555 -27 hlineto
        -5 -67 rlineto
        return
      </CharString>
      <CharString index="63">
        -213 -12 28 706 41 callsubr
        144 -12 rmoveto
        12 6 2 2 8 hvcurveto
        -6 26 rlineto
        -7 callsubr
        676 -30 -670 vlineto
        -46 18 -18 30 vhcurveto
        endchar
      </CharString>
      <CharString index="64">
        27 21 -21 612 28 hstem
        182 34 vstem
        182 hmoveto
        34 hlineto
        10 250 38 166 152 206 rrcurveto
        18 -372 -28 330 vlineto
        -128 -182 -54 -166 -10 -264 rrcurveto
        endchar
      </CharString>
      <CharString index="65">
        -57 478 234 hstem
        177 32 vstem
        130 478 rmoveto
        64 82 62 -82 22 16 -54 86 88 34 -8 24 -92 -24 -6 98 rlineto
        -26 hlineto
        -6 -100 -92 26 -8 -24 88 -34 -54 -86 rlineto
        endchar
      </CharString>
      <CharString index="66">
        68 20 36 54 70 vvcurveto
        108 -82 52 -132 vhcurveto
        -172 hlineto
        32 -294 rmoveto
        266 126 vlineto
        128 68 -36 -98 -82 -58 -50 -144 hvcurveto
        -120 -338 rmoveto
        310 140 vlineto
        return
      </CharString>
      <CharString index="67">
        32 vstem
        100 hmoveto
        32 338 370 -338 32 660 -32 -294 -370 294 -32 hlineto
        return
      </CharString>
      <CharString index="68">
        -12 -34 callsubr
        return
      </CharString>
      <CharString index="69">
        -107 494 200 hstem
        84 38 90 38 vstem
        90 494 -42 callsubr
        134 -140 32 callgsubr
      </CharString>
      <CharString index="70">
        32 272 hlineto
        198 388 -28 callsubr
        -106 -214 -22 -48 -26 -46 -26 -48 12 callsubr
        -26 48 -22 46 -24 48 -106 214 rcurveline
        -34 hlineto
        198 -388 rlineto
        endchar
      </CharString>
      <CharString index="71">
        710 rmoveto
        14 16 -118 120 -22 -24 rlineto
        return
      </CharString>
      <CharString index="72">
        -14 117 -28 callsubr
        14 -117 rlineto
        return
      </CharString>
      <CharString index="73">
        -21 236 28 362 34 return
      </CharString>
      <CharString index="74">
        136 -65 49 -100 vhcurveto
        return
      </CharString>
      <CharString index="75">
        -21 462 28 return
      </CharString>
      <CharString index="76">
        37 -234 28 208 32 118 28 270 28 -16 28 return
      </CharString>
      <CharString index="77">
        122 -10 rmoveto
        186 10 174 92 -9 244 -1 28 rcurveline
        -4 119 -61 56 -111 9 -52 4 rcurveline
        -2 -30 50 -3 rlineto
        101 -6 48 -59 -97 vvcurveto
        -21 vlineto
        return
      </CharString>
      <CharString index="78">
        -107 21 -21 580 22 -22 60 hstemhm
        174 30 hintmask 10110000
        174 hmoveto
        30 640 -26 hlineto
        hintmask 11010000
        -28 -16 -40 -14 -50 -8 rrcurveto
        hintmask 10110000
        -22 114 vlineto
        endchar
      </CharString>
      <CharString index="79">
        vstem
        226 hmoveto
        32 hlineto
        218 660 -28 callsubr
        -128 -396 -26 -82 -18 -60 -28 -81 12 callsubr
        -28 81 -18 60 -26 82 -128 396 rcurveline
        -34 hlineto
        return
      </CharString>
      <CharString index="80">
        32 vstem
        396 30 rmoveto
        330 vlineto
        -33 callgsubr
        -171 -30 169 hlineto
        -33 callsubr
        -330 -304 -30 304 vlineto
        106 30 hlineto
        return
      </CharString>
      <CharString index="81">
        -20 -14 -32 -30 -44 vvcurveto
        -36 18 -26 24 -14 vhcurveto
        -4 vlineto
        return
      </CharString>
      <CharString index="82">
        vstem
        287 253 rmoveto
        132 292 rlineto
        -34 hlineto
        -116 -264 -162 264 rlineto
        -35 hlineto
        318 -515 rlineto
        -345 -30 363 hlineto
        35 hlineto
        return
      </CharString>
      <CharString index="83">
        -216 rmoveto
        90 6 48 26 50 vvcurveto
        40 -28 18 -42 10 vhcurveto
        30 68 rlineto
        -28 hlineto
        -40 -86 rlineto
        54 -8 24 -14 -30 vvcurveto
        -30 -26 -18 -88 -6 vhcurveto
        endchar
      </CharString>
      <CharString index="84">
        -16 18 rlineto
        -48 -34 -30 -46 -68 vvcurveto
        return
      </CharString>
      <CharString index="85">
        -20 hstem
        406 32 vstem
        34 152 rmoveto
        404 162 rlineto
        36 vlineto
        -404 162 rlineto
        -32 vlineto
        372 -146 rlineto
        -4 vlineto
        -372 -146 rlineto
        return
      </CharString>
      <CharString index="86">
        46 -78 14 vhcurveto
        -61 11 -6 -29 65 -11 rlineto
        58 -10 return
      </CharString>
      <CharString index="87">
        483 316 rmoveto
        -1 28 rlineto
        119 -4 -61 82 -111 hhcurveto
        -251 hlineto
        3 -30 64 -525 186 10 184 72 -9 244 rlinecurve
        return
      </CharString>
      <CharString index="88">
        32 6 32 268 32 -12 32 hintmask 11100100
        return
      </CharString>
      <CharString index="89">
        29 -12 28 240 28 340 28 hstem
        return
      </CharString>
      <CharString index="90">
        268 59 188 30 return
      </CharString>
      <CharString index="91">
        32 vstem
        55 hmoveto
        224 393 hlineto
        91 -45 -21 callgsubr
        35 -34 -78 vvcurveto
        -363 -192 vlineto
        return
      </CharString>
      <CharString index="92">
        -173 -152 22 816 22 hstem
        146 24 vstem
        18 -152 rmoveto
        152 860 -152 -22 128 -816 -128 hlineto
        endchar
      </CharString>
      <CharString index="93">
        288 hmoveto
        -38 197 rlineto
        196 vlineto
        91 -19 -21 callgsubr
        9 -40 -72 vvcurveto
        -199 vlineto
        return
      </CharString>
      <CharString index="94">
        -450 30 450 114 28 -114 114 vlineto
        72 24 42 54 return
      </CharString>
      <CharString index="95">
        252 -12 rmoveto
        66 54 36 40 40 hvcurveto
        2 hlineto
        return
      </CharString>
      <CharString index="96">
        -173 -152 22 816 22 hstem
        100 24 vstem
        100 -152 rmoveto
        152 22 -128 816 128 22 -152 hlineto
        endchar
      </CharString>
      <CharString index="97">
        746 -84 callgsubr
        return
      </CharString>
      <CharString index="98">
        114 98 92 158 return
      </CharString>
      <CharString index="99">
        -332 -293 rmoveto
        -61 492 rlineto
        212 hlineto
        100 49 -81 -97 hvcurveto
        -21 vlineto
        10 -233 -177 -46 -133 -14 rrcurveto
        return
      </CharString>
      <CharString index="100">
        32 vstem
        155 -6 callsubr
        81 30 -231 -30 117 hlineto
        -18 -29 -9 -40 -48 vvcurveto
        return
      </CharString>
      <CharString index="101">
        rmoveto
        134 86 80 80 74 -48 34 -106 hvcurveto
        return
      </CharString>
      <CharString index="102">
        32 310 32 vstem
        return
      </CharString>
      <CharString index="103">
        -92 -160 -158 return
      </CharString>
      <CharString index="104">
        -52 -28 -49 -57 -2 hvcurveto
        24 -2 rlineto
        48 4 23 32 31 hhcurveto
        return
      </CharString>
      <CharString index="105">
        570 rmoveto
        92 160 -26 16 -86 -166 rlineto
        148 -10 rmoveto
        92 160 -26 16 -86 -166 rlineto
        endchar
      </CharString>
      <CharString index="106">
        28 310 28 266 28 return
      </CharString>
      <CharString index="107">
        82 545 rmoveto
        172 -32 -202 325 vlineto
        -202 -515 14 callgsubr
        202 515 rlineto
        30 vlineto
        return
      </CharString>
      <CharString index="108">
        32 428 hlineto
        -35 callgsubr
        return
      </CharString>
      <CharString index="109">
        404 28 -404 hlineto
        return
      </CharString>
      <CharString index="110">
        124 190 190 return
      </CharString>
      <CharString index="111">
        -81 callsubr
        endchar
      </CharString>
      <CharString index="112">
        32 vstem
        89 210 rmoveto
        31 10 1 63 rlineto
        145 vlineto
        -35 callgsubr
        return
      </CharString>
      <CharString index="113">
        -77 -391 14 callgsubr
        74 383 rlineto
        68 18 40 68 96 hhcurveto
        85 75 -47 -171 5 hvcurveto
        return
      </CharString>
      <CharString index="114">
        13 callgsubr
        108 return
      </CharString>
      <CharString index="115">
        137 -10.22 28.91 -20.69 20.69 return
      </CharString>
      <CharString index="116">
        -73 callgsubr
        endchar
      </CharString>
      <CharString index="117">
        41 callgsubr
        256 32 34 32 return
      </CharString>
      <CharString index="118">
        -9 callsubr
        7 callsubr
        return
      </CharString>
      <CharString index="119">
        13 callgsubr
        141 -21 return
      </CharString>
      <CharString index="120">
        -190 70 return
      </CharString>
      <CharString index="121">
        rlineto
        32 hlineto
        return
      </CharString>
</ttFont>
